<svg xmlns="http://www.w3.org/2000/svg" buffered-rendering="static" xmlns:xlink="http://www.w3.org/1999/xlink" width="630px" height="368px" viewBox="0 0 630 368">
<desc>
This file was created by http://www.h2.dion.ne.jp/~defghi/img2svg3/img2svg3.htm at Sat Nov 14 2020 13:49:38 GMT+0900 (日本標準時)
</desc>
<defs>
<g id="rgb" style="isolation:isolate;">
<g id="r" style="mix-blend-mode:screen;">
<path d="M197.7 13.4c-.7-.1-2.4 .4-3.9 1.2-1.6 .8-2.8 2-2.8 2.7 0 .6-1.2 2.1-2.6 3.2-1.4 1.1-3.9 4-5.5 6.5-1.6 2.5-2.9 5.1-2.9 5.8 0 .6-1.1 2.9-2.4 5-1.4 2-3 5.7-3.6 8.2-.7 2.5-1.6 5-2.1 5.5-.4 .6-1.8 4.4-2.9 8.5-1.1 4.1-2.9 9.8-4 12.5-1 2.8-2.2 6.7-2.5 8.8-.3 2-.9 4.5-1.4 5.5-.5 .9-1.4 7.8-2.1 15.2-.6 7.4-1.6 15.1-2.2 17-.7 2.5-.7 4.5 .2 7 .8 2.4 .9 5.1 .3 8.5-.6 3.4-.4 6.7 .4 10.3l1.3 5.2-3.2 3.1c-1.8 1.7-4.3 3.5-5.5 4-1.3 .5-2.7 2-3.3 3.4-.5 1.4-.7 3.5-.4 4.8 .4 1.7-.3 2.9-3.3 5.3-2.1 1.8-5.1 3.8-6.6 4.5-1.5 .8-2.7 1.7-2.7 2.2 0 .4-2.5 1.6-5.5 2.7-3 1.1-7.2 3.1-9.2 4.5-2.1 1.4-4.4 2.5-5 2.5-.7 0-3.4 1.2-6 2.7-2.7 1.5-6.4 2.9-8.3 3.1-3.1 .4-3.4 .3-2.6-1.4 .4-1 1.1-2.7 1.5-3.7 .3-1 1.4-2 2.4-2.2 .9-.3 1.7-.9 1.7-1.5 0-.5 1.8-2.8 4-5 2.2-2.2 4-4.4 4-5 0-.5 .6-1.6 1.3-2.2 .7-.7 3-4.9 5.2-9.3 3.5-7.2 3.9-8.7 3.7-14.7-.1-3.8-.6-8.8-1.2-11.3-.5-2.5-1.9-6.5-3-9-1.7-3.9-2.4-4.5-5-4.5-1.6 0-3-.3-3-.7 0-.5 .4-1.2 .9-1.8 .5-.5 1.2-4.4 1.6-8.5l0.7-7.5-2.6-1.7c-1.4-1-4.1-1.8-5.8-1.8-2.3 0-4.4 .9-7 3.2-2.1 1.8-4.9 5.4-6.3 8.1l-2.5 4.7-2.7-2.2c-2.2-1.8-4.1-2.3-9.3-2.3-4.8-.1-8.1 .6-12.7 2.5-3.4 1.4-7.5 3.6-9.1 5-1.5 1.4-3.6 3.6-4.5 5-1 1.4-1.9 3.2-2.1 4-.1 .8-.8 2.9-1.5 4.5-.7 1.7-1.3 3.9-1.4 5-.1 1.1-.7 2.6-1.4 3.3-.9 .8-1.2 3.1-.9 7 .3 3.1 .8 7.1 1.2 8.7 .3 1.7 1.4 3.8 2.3 4.8 .9 .9 2.6 1.9 3.9 2.2l2.2 .5-1 3.3c-.7 2.3-.5 5.1 .8 10.6l1.7 7.4 6.5 6.9c4.2 4.5 8.6 7.9 12.5 9.9 3.3 1.6 8.5 3.3 11.5 3.7 3 .4 8 .4 11 0 3-.4 9.1-1.9 13.5-3.4 4.4-1.5 11.8-4.7 16.5-7.1 4.7-2.4 9.1-4.8 9.8-5.3 .6-.6 1.5-1 2-1 .4 0 1.5-.8 2.5-1.8 .9-.9 2-1.4 2.5-.9 .4 .4 .1 2.6-.6 5-.7 2.3-1.8 5.8-2.4 7.7-.6 1.9-1.2 5.8-1.4 8.5-.2 2.8-.5 7-.8 9.5-.4 2.5-.9 5.4-1.2 6.5-.3 1.1-.8 7.4-1 14-.2 6.6-.5 14.5-.8 17.5-.3 3-1.2 6.9-2 8.5-.9 1.7-1.6 3.9-1.6 5 0 1.1-.7 3.4-1.5 5-.9 1.7-1.5 3.7-1.5 4.5 0 .8-.3 1.9-.7 2.3-.4 .5-.8 1.2-.8 1.5 0 .4-.6 2.3-1.4 4.2-.7 1.9-2.1 4.9-3 6.7-.9 1.7-2 2.9-2.6 2.5-.6-.4-.7-.2-.2 .6 .4 .6 .3 2-.2 3-.5 .9-2.2 4.4-3.6 7.7-1.5 3.3-4.9 8.3-7.6 11-3.5 3.6-4.9 5.8-4.9 8-.1 2.4 .6 3.4 3.4 5l3.4 2 2.6-1.7c1.4-1 3.3-1.8 4.1-1.8 .8 0 2.2-1.1 3-2.5 .8-1.4 1.8-2.3 2.3-2 .4 .2 2.1-.3 3.7-1.2 1.7-.9 4.6-2.8 6.5-4.3 1.9-1.5 5.2-4.9 7.2-7.6 2.1-2.7 3.9-6 4.1-7.4 .2-1.4 .6-2.9 .9-3.5 .4-.5 1.6-4.1 2.8-8 1.2-3.8 2.5-7.7 3-8.5 .4-.8 1.1-3.7 1.4-6.5 .4-2.7 1.8-8.8 3.2-13.5 1.4-4.7 3-9.6 3.6-11 .5-1.4 1.2-4.3 1.5-6.5 .3-2.2 .8-4.7 1.3-5.5 .5-.8 1.3-4.2 2-7.5 .6-3.3 1.1-6.7 1.1-7.5 .1-.8 .7-4.4 1.5-8 .7-3.6 1.8-10.5 2.4-15.5 .6-4.9 1.8-11.2 2.6-14 .8-2.7 1.4-5.4 1.3-6-.2-.5 .5-3.7 1.5-7 1-3.3 1.5-6.8 1.2-7.7-.3-1 0-2.3 .7-2.8 .6-.6 6.8-1.6 13.7-2.4 6.9-.7 17.6-1.4 23.8-1.5l11.2-.1 1 2c0.7 1.4 .6 4.9-.5 11.3-.7 5-1.5 16.9-1.6 26.2-.2 9.4 0 19 .4 21.5 .4 2.5 .8 8.1 1 12.5 .2 4.6 1.1 9.6 2 11.8 .9 2 1.6 5.8 1.6 8.5-.1 3.8 .5 5.8 3.5 10.5 2 3.1 4.5 6.6 5.6 7.7 1.1 1.1 3 3.9 4.1 6.3 1.2 2.3 3 5.1 4.1 6.2 1.5 1.5 1.7 2.6 1.1 4.5-.4 1.4-.8 6.3-.9 11 0 4.7-.4 11.7-.8 15.5-.7 6-.6 7.7 1.1 11.5 1.1 2.5 4.3 7.1 7.1 10.3 2.9 3.1 5.7 5.7 6.2 5.7 .6 0 2.9 .9 5.3 2 2.3 1.1 6.9 2.4 10.2 2.8 3.3 .4 10.1 .6 15 .5 6-.1 11.3-.9 16-2.4 3.9-1.2 7.6-2.6 8.3-3.1 .6-.4 1.8-.5 2.5-.1 .8 .5 .9 .4 .5-.5-.5-.8 .2-1.6 2-2.4 1.5-.7 4.1-2.2 5.7-3.3 1.7-1.1 5.6-4 8.7-6.5 3.1-2.5 5.9-5.3 6.2-6.2 .4-1 1.1-1.6 1.6-1.3 .6 .3 .9 .2 .8-.2 0-.5 1.1-3.5 2.6-6.8 1.6-3.3 4.1-10.3 5.8-15.5 1.6-5.2 3.8-12.6 4.8-16.5 1-3.8 2.5-9 3.4-11.5 1-2.7 1.6-7.6 1.6-12.5 0-6.5-.6-9.4-3-15.5-2.4-6-2.9-8.4-2.5-12 .4-2.6 2-6.6 3.9-9.5 1.8-2.7 3.5-6 3.9-7.2 .4-1.3 1.2-2.3 1.7-2.3 .6 0 2-1.9 3.3-4.2 1.2-2.4 3-6.3 3.9-8.8 .9-2.5 1.9-6.5 2.2-9 .4-2.5 .1-7-.5-10-.8-3.8-2.1-6.5-4.3-8.6-1.7-1.7-4.9-3.6-7.1-4.3-2.2-.6-5.8-.8-8-.5-2.2 .4-5.6 1.7-7.5 2.9-2.5 1.7-4.5 4.5-7 9.7-3 6.5-3.4 8.2-3.5 16.3l-.1 9-3-.2c-1.6-.1-4.5-.3-6.4-.4-1.9-.1-6 .8-9 1.9-3 1.2-6.8 3.4-8.5 5-1.6 1.5-4.8 4.8-6.9 7.3-2.1 2.4-4.7 6.2-5.7 8.4-1 2.2-2.2 7.2-2.6 11-.5 3.9-.7 12.1-.6 18.3 .3 9.4 .7 12.2 2.9 17.5 1.5 3.4 3.4 7.2 4.3 8.3 .9 1.2 4.3 4 7.6 6.3 5.1 3.4 6.9 4.1 11.5 4.3 4.4 .1 6.3-.4 9.8-2.5 2.3-1.5 5.1-4.2 6.1-5.9 1.1-1.8 2.4-3.7 2.9-4.3 .5-.5 2.1-3.4 3.5-6.2 1.5-2.9 3-5.3 3.5-5.3 .4 0 .6 1.7 .5 3.8-.1 2-1.3 7.5-2.6 12.2-1.4 4.7-3.2 10.3-4 12.5-.9 2.2-3.7 6.4-6.4 9.4-2.6 3-7.6 8.3-11 11.8-3.7 3.7-8.8 7.5-12.3 9.3-3.3 1.7-6.2 3.3-6.4 3.8-.2 .4-3 .8-6.3 1-3.2 .2-6.1 .5-6.5 .8-.5 .2-1.8-.1-3-.8-1.3-.7-3.4-1.1-4.8-1-1.5 .2-5.3-1.4-9.5-4-5.6-3.4-7.5-5.4-9.7-9.3-1.4-2.8-2.7-6.3-2.9-8-.1-1.6 .4-4.3 1.2-5.8 .8-1.5 1.7-2.7 2.2-2.7 .4 0 1.9 .6 3.5 1.4 1.5 .8 5 1.7 7.7 2.1 3.8 .5 5.6 .2 7.3-.9 1.2-.9 2.7-3.3 3.3-5.3 1-3.3 .7-4.9-1.8-12.2-2.5-7.5-3.4-8.9-8.3-13.1-3-2.6-7.2-7.5-9.2-10.8-2.1-3.4-3.9-7-4.1-7.9-.2-1-1-3.4-1.9-5.3-.8-1.9-2.5-6.9-3.7-11-1.3-4.1-2.4-8.4-2.6-9.5-.1-1.1-1-6.9-1.9-13-.9-6-1.7-18.5-1.9-27.8-.1-9.2 .1-16.6 .5-16.5 .3 .2 2.3 1.7 4.3 3.3 2.1 1.7 5.8 5 8.4 7.5 2.6 2.5 6.5 5.3 8.6 6.4 2.2 1 5.1 2.1 6.5 2.5 1.4 .3 5.3 .4 8.8 .3l6.2-.2 5.4-4.7c4.6-4 5.5-5.4 5.6-8.3 0-2.2-.8-4.6-2.2-6.5-1.3-1.6-2.4-3.7-2.5-4.5-.2-.8-.4-1.5-.5-1.6-.2 0-1.6-1-3.3-2.2-2.3-1.7-4.3-2.3-8.5-2.2-3 0-7.3 .7-9.5 1.6-2.6 1-5.4 1.4-7.7 1-2.4-.4-5.2-1.9-7.5-4.1-2.1-1.9-4.7-3.4-5.8-3.5-1.1 0-3.2-.5-4.7-1.2-1.6-.8-3.2-2.6-3.8-4.3-.6-1.6-1.2-14.5-1.5-28.5-.2-14-.9-27.1-1.4-29-.5-1.9-.6-3.9-.3-4.3 .4-.4 .1-4.5-.7-9-.7-4.5-2.4-11.3-3.7-15.2-1.3-3.8-4-10.4-6-14.5-2-4.1-3.9-7.7-4.3-8-.3-.3-1.2-1.6-1.9-3-.7-1.4-2.9-4.2-5-6.2-2-2-5.2-5.1-6.9-6.7-1.8-1.7-5-3.5-7-4-2.1-.4-4.9-.4-6.3 .1-1.4 .4-2.6 .7-2.8 .6-.1-.2 .3-2.4 1-5 1.1-3.9 1.1-5 0-6-.7-.7-1.9-1.4-2.5-1.4ZM206.7 40.3c1 1 2.8 3.5 4 5.5 1.3 2 3.7 6.6 5.4 10.2 1.7 3.6 3.5 7.9 4 9.5 .4 1.7 1.3 4.8 1.9 7 .6 2.2 1.6 6.3 2.1 9 .6 2.8 1.2 7.5 1.4 10.5 .3 3 .7 9.6 1 14.5 .3 5 .5 15.3 .5 23 0 7.7-.4 15.5-.8 17.4-.4 1.8-1 3.5-1.4 3.7-.5 .2-8.6 .4-18 .4-9.5 0-17.5-.3-17.8-.5-.3-.3 .8-1.8 2.3-3.3 1.6-1.5 3.2-4.6 3.8-7.2 .6-2.5 1.3-7.9 1.6-12 .5-6.3 .2-8.2-1.6-11.7-1.1-2.4-3.1-5.1-4.4-6-1.3-1-4.5-1.9-7.3-2.1-2.7-.2-5.2-.6-5.6-1-.4-.4 .4-3.8 1.8-7.7 1.4-3.8 3.2-7.9 4-9 .8-1.1 1.4-2.8 1.4-3.7 0-1 .5-1.8 1-1.8 .6 0 .8-.3 .6-.7-.3-.5 .5-2.6 1.8-4.8 1.2-2.2 2.6-5.3 3-7 .4-1.6 2.3-6.4 4.3-10.5 2-4.1 3.6-8.1 3.7-8.7 0-.7 .3-1.3 .6-1.3 .3 0 .6-.6 .7-1.2 .2-.7 .5-2.8 .8-4.5 .3-1.8 1-3.3 1.5-3.3 .6 0 1.2-1 1.5-2.2l0.4-2.3 1.8 1.8ZM208.3 81.1c-1.6 .1-3.6 .3-4.5 .5-1 .2-2.9 2.7-4.3 5.4-1.4 2.8-2.5 5.8-2.5 6.8 0 .9 .7 2.7 1.5 4 .9 1.3 2.5 2.2 4 2.2 1.9 0 2.6-.6 3-2.5 .3-1.7 1.7-3 4-4 3-1.3 3.5-2 3.5-5 0-1.9-.4-4.4-1-5.5-.7-1.3-1.9-2-3.7-1.9ZM218.5 93c-1.4 0-3.6 1.2-5 2.8-1.4 1.5-2.5 3.6-2.5 4.7 0 1.1 .4 2.5 .8 3.2 .4 .6 1.8 1.6 3.2 2.1 1.7 .7 3.4 .6 5.5-.2 1.7-.7 3.3-2 3.8-2.9 .4-.9 .7-2.5 .7-3.4-.1-1-1-2.8-2-4-1.1-1.3-3.1-2.3-4.5-2.3ZM170 94c0.6 0 1 .7 1 1.5 0 .8-.4 1.7-1 2-.5 .3-1.3 .3-1.7 0l-.8-.5 .8-1.5c0.4-.8 1.2-1.5 1.7-1.5ZM182 122c0.6 0 1.3 1.5 1.6 3.3 .4 1.7 .4 4.3 0 5.7-.3 1.4-2.6 4.2-5.1 6.3-2.5 2-5.7 3.8-7.2 4-2.5 .2-2.8-.1-2.8-2.8 0-2 .5-3 1.5-3 1 0 1.6-1.2 1.8-3.7 .1-2.3 .7-3.8 1.5-3.8 .6 .1 2.7-1.3 4.5-3 1.7-1.6 3.7-3 4.2-3ZM526.3 152.1c-1 .1-5.4 .9-9.8 1.8-4.4 1-9.9 2.9-12.2 4.4-2.4 1.5-4.5 3.2-4.8 3.7-.3 .6-.9 .8-1.5 .5-.5-.3-.9-.1-.7 .4 .1 .4-2 2.7-4.8 5-2.7 2.2-5.6 4.1-6.2 4.1-.7 0-1.3-.9-1.3-2 0-1.1-1.5-3.6-3.2-5.6-1.8-2-4-4.4-4.8-5.2-.8-.9-3.5-2.4-6-3.5-2.5-1.1-6.6-2.2-9.2-2.4-2.8-.2-4.8 .1-4.8 .7 0 .6-.7 1-1.5 1-.8 0-1.7 .8-2 1.8-.3 .9-1.1 2.6-1.8 3.7-.6 1.1-2.4 3.6-3.9 5.5-1.4 1.9-2.7 4.2-2.8 5-.1 .8-.2 3.6-.1 6.3 .1 3.8 .7 5.3 3.4 8.2 1.9 2.2 5.1 4.2 8.2 5.2 3.8 1.2 7 1.4 13.3 .9l8.2-.6-.6 6.3c-.3 3.4-.8 6.5-1 7-.2 .4-.6 7.6-.9 16-.3 8.3-1.2 18.7-2 23-.8 4.2-1.5 10-1.5 12.7 0 2.8-.4 5.2-1 5.5-.5 .3-1 4-.9 8.3 0 4.2-.4 10.6-1 14.2-.6 3.6-1.3 10.6-1.5 15.5-.3 5-.7 9.9-.9 11-.2 1.1 .1 3 .7 4.3 .9 1.9 1.9 2.2 5.6 2.2 4-.1 4.8-.5 6.8-3.5 1.8-3 2.1-4.4 1.7-9.5-.3-3.3-.2-6.2 .3-6.4 .4-.2 .6-6.9 .5-14.8 0-7.8 .3-15.6 .8-17.3 .4-1.6 1.1-4.6 1.4-6.5 .3-1.9 1-6.6 1.5-10.5 .6-3.8 1.5-9 2-11.5 .6-2.5 1.2-6.3 1.5-8.5 .4-2.2 1.4-12.7 2.3-23.3 1.4-16.3 2-19.5 3.5-20.3 .9-.5 5.2-.9 9.5-1 4.2 0 10.6 .4 14.2 1 3.6 .5 8.5 1.5 11 2.1 2.5 .7 6.1 2.1 8 3.3 1.9 1.1 5.8 3.8 8.5 5.9 2.8 2 7.8 4.6 11.3 5.8 3.4 1.1 7.2 1.8 8.5 1.6 1.2-.2 4-.9 6.2-1.4 2.2-.6 5.4-2.3 7-3.9 1.7-1.5 3.8-3.9 4.7-5.3 .8-1.4 1.7-3.8 1.8-5.5 .1-1.6 .1-3.2 0-3.5-.1-.3-.4-1.6-.6-3-.3-1.4-.9-2.6-1.4-2.7-.6-.2-1-1.3-1-2.5 .1-1.5-1.6-3.8-4.7-6.6-2.6-2.3-6.8-5.2-9.3-6.5-2.5-1.2-4.7-2.5-5-2.8-.3-.3-4.1-1.7-8.5-3.1-4.4-1.5-12.4-3.1-17.7-3.7-5.4-.6-10.6-1.1-11.5-1ZM165.8 153c1.2 0 2.2 .5 2.2 1 0 .6-.4 1.2-1 1.5-.5 .3-1.6-.2-2.2-1-1.1-1.4-1-1.6 1-1.5ZM398.3 181.3l-4.3-.3-2 3.3c-1.1 1.7-2 4.1-2 5.2 0 1.1 .6 2.9 1.5 4 .8 1.1 1.5 2.6 1.5 3.3 0 .6 .8 2.8 1.8 4.7 1.1 2.5 2.9 4.1 5.5 5 2 .8 4.2 1.5 4.7 1.5 .6 0 3.3-2.1 6-4.7 3.5-3.3 5.1-5.6 5.1-7.3-.1-1.4-.5-4-1.1-5.7-.8-2.7-2.1-3.8-6.7-6-3.2-1.5-7.7-2.8-10-3ZM175 204c-1.1 0-2.2 .5-2.5 1-.3 .6 .1 1.7 .8 2.5 .6 .9 1.5 1.6 2 1.5 .4 0 .5-.4 .2-1-.3-.5 0-1 .5-1 .6 0 1-.7 1-1.5 0-.8-.9-1.5-2-1.5ZM323.8 219.1c0.6-.1 1.2 .4 1.2 .9 0 .6-.4 .9-.8 .8-.4-.2-2.4 .8-4.3 2.1-1.9 1.3-5.1 4.4-7.1 7-2.3 2.7-4.7 7.5-6 11.6l-2.3 7-.3-4c-.2-2.2 .2-5.1 .9-6.5 .6-1.4 1.9-4.1 2.8-6 .9-1.9 2.9-4.6 4.5-6 1.6-1.4 4.5-3.5 6.5-4.7 2-1.1 4.2-2.2 4.9-2.2ZM388 237.3c-2.2-.3-3.9 0-4.6 .9-.8 .9-.9 3.7-.3 8.8 .4 4.1 1 9.1 1.4 11 .4 1.9 .8 3.7 1 4 .2 .3 .7 6.6 1.1 14 .5 7.4 .9 15.3 .9 17.6 0 2.2-.7 5.3-1.5 6.8-1.1 2-1.3 3.3-.5 5.4 .7 1.8 2.3 3.1 4.8 4 2 .6 4.4 .9 5.3 .5 .9-.5 2.3-2.1 3-3.8 1-2.1 1.3-5.2 1-10.5-.3-4.1-.7-8.8-1-10.5-.3-1.6-1.1-9.3-1.9-17-.8-7.7-1.2-16.2-.9-19 .2-2.7 .2-6.2-.2-7.7-.3-1.6-1.4-3.1-2.3-3.4-1-.4-3.4-.8-5.3-1.1Z" style="fill:rgb(255,0,0);"/>
<path d="M196.5 14c-.5 .1-2.9 2.2-5.3 4.8-2.4 2.6-5.7 6.6-7.3 9-1.6 2.3-2.9 4.7-2.9 5.2 0 .6-1.1 3.1-2.5 5.8-1.4 2.6-3.6 7.6-4.9 11.2-1.3 3.6-3.3 9.9-4.5 14-1.2 4.1-2.8 9-3.6 10.8-.8 1.7-1.5 4.6-1.5 6.2 0 1.7-.7 4.5-1.5 6.3-.8 1.7-2.1 10.4-3.1 19.2-.9 8.8-1.5 16.9-1.4 18 .1 1.1 .1 5.6 0 10-.1 5.1 .5 9.5 1.4 12.3l1.6 4.2-1.7 .7c-1 .4-2.8 2-4 3.5-1.3 1.5-3 2.8-3.8 2.8-.8 0-2.2 1-3 2.3-.8 1.2-1.2 3.3-.9 4.7 .2 1.4 .1 3-.3 3.5-.5 .6-1.9 1.8-3.3 2.7-1.4 1-4.3 3-6.5 4.6-2.2 1.6-7.4 4.5-11.5 6.5-4.1 2-8.2 4-9 4.5-.8 .5-3.7 2-6.5 3.4-2.7 1.4-7.2 3.1-10 3.7-3.5 .8-5.3 .8-6 .1l-1-1 1 0c0.6 .1 1.7-1.4 2.5-3.2 .8-1.8 3.9-5.9 7-9.1 3-3.2 6.8-8.1 8.4-11 1.6-2.9 3.8-7 5-9.2 1.2-2.5 2.1-6.7 2.4-11 .3-4.5-.2-9.5-1.3-14-.9-3.8-2.3-8-3.1-9.2-.8-1.3-2.7-2.5-4.4-2.8-1.6-.3-3-1.1-3-1.7 0-.7 .3-1.7 .7-2.1 .4-.5 .9-1.6 1-2.5 .1-1 .5-3.9 .9-6.7l0.7-5-2.4-1.8c-1.3-.9-3.7-1.7-5.4-1.7-2-.1-4.1 1-6.5 3.2-1.9 1.9-4.4 5.5-5.5 8.1-1.1 2.6-2.3 4.7-2.7 4.7-.5 0-2.3-1-4-2.2-2.5-1.7-4.8-2.3-9.3-2.4-4.6 0-7.4 .6-12 2.7-3.3 1.6-7.6 4.1-9.5 5.7-2.3 1.9-4.3 4.9-5.7 8.8-1.3 3.2-2.3 6.8-2.3 7.9 0 1.1-.8 2.8-1.8 3.8l-1.7 1.8 1.2 7.7c0.9 5.6 1.9 8.3 3.5 10 1.3 1.2 3.1 2.2 4.1 2.2 1.5 0 1.6 .6 1.1 4.8-.4 2.8-.1 7.1 .7 10.7 1.1 4.5 2.5 7.1 5.9 11 2.5 2.7 5.6 5.9 7 7 1.4 1.1 5 3.3 8 4.9 4.3 2.3 7.2 3 13 3.4 5.5 .3 9.7-.2 15.5-1.6 4.4-1.2 9.4-2.8 11-3.6 1.7-.9 3.5-1.6 4-1.6 .6 0 2-.9 3.3-2 1.2-1.1 3.4-2.3 5-2.7 1.5-.3 5.4-2.3 8.7-4.4 3.3-2.1 6.6-3.9 7.3-3.9 .8 0 1.1 1.2 .8 3.8-.2 2-.6 4.2-.9 4.7-.3 .6-1.3 3.5-2.1 6.5-.8 3-1.4 8-1.5 11 0 3-.4 7.5-1 10-.5 2.5-1.3 11.9-1.6 21-.5 13.1-1.1 17.4-2.6 20.8-1 2.3-1.9 5.2-1.9 6.5 0 1.2-.6 3.1-1.3 4.2-.8 1.1-1.7 3.6-2.1 5.5-.4 1.9-2.4 7.1-4.5 11.5-2.1 4.4-5.5 11.4-7.4 15.5-2.1 4.6-5.2 9.2-8.1 12-2.9 2.9-4.6 5.4-4.6 7-.1 1.4 .5 3 1.2 3.6 .7 .6 2 1.3 2.8 1.7 .8 .3 3.5-.4 6-1.5 2.5-1.1 5.3-3 6.2-4.2 1-1.1 1.7-1.8 1.8-1.3 0 .4 1.5 0 3.3-1 1.7-.9 4.9-3 7-4.7 2.1-1.7 4.9-4.7 6.2-6.6 1.4-1.9 3.9-7.5 5.5-12.5 1.7-4.9 4-12.1 5.1-16 1-3.8 1.9-7.9 1.9-9 0-1.1 .7-4 1.6-6.5 .8-2.5 2.2-7 3-10 .9-3 1.9-5.9 2.4-6.5 .4-.5 1-2.8 1.3-5 .3-2.2 1.7-9.8 3.1-17 1.3-7.1 2.7-14.8 3-17 .2-2.2 .9-6.9 1.5-10.5 .6-3.6 1.6-8.7 2.2-11.5 .5-2.7 1.9-8.5 3-12.7 1-4.3 1.7-8.2 1.4-8.8-.3-.5-.2-1.7 .3-2.6 .4-.8 2.1-1.9 3.7-2.4 1.7-.5 6.8-1.2 11.5-1.5 4.7-.4 10.8-.9 13.5-1.2 2.8-.2 7.3-.5 10-.5 2.8-.1 6.7 0 8.8 .1 2.8 .1 3.9 .6 4.6 2.4 .6 1.4 .5 5-.4 10.2-.8 4.4-1.5 15.4-1.6 24.5-.1 9.1 .1 21.7 .5 28 .4 6.3 .9 12.9 1.1 14.5 .2 1.7 1.3 5 2.4 7.5 1.2 3 1.7 5.9 1.4 8.5-.4 3.2 .1 4.7 2.1 7.5 1.5 1.9 2.6 4 2.6 4.5 0 .6 1.1 2.1 2.6 3.5 1.4 1.4 3.7 4.8 5.1 7.5 1.4 2.8 3.6 6.2 4.9 7.8l2.4 2.7-2.1 2.8-2 2.7 1.6 4c0.9 2.2 1.4 5.1 1.1 6.5-.3 1.4-1.1 5.7-1.9 9.5-.9 4.2-1.1 7.6-.6 8.5 .5 .8 .9 2.3 .9 3.3 0 .9 2.4 4.7 5.3 8.4 4.2 5.4 6.4 7.2 11.2 9.4 3.3 1.5 8.9 3.1 12.5 3.7 3.6 .6 10.1 .9 14.5 .7 4.5-.1 11.3-1.2 15.5-2.5 4.1-1.2 8.2-2.8 9-3.5 .8-.7 3.9-2.4 6.8-3.9 2.8-1.4 6.2-3.6 7.5-4.9 1.2-1.2 3.8-3.4 5.7-4.8 1.9-1.5 5.4-5.9 7.8-9.8 2.6-4.5 4.9-10.1 6.2-15.3 1.1-4.6 2.4-8.7 2.9-9.3 .5-.5 1.2-2.6 1.6-4.5 .3-1.9 1.5-6.2 2.6-9.5 1.1-3.3 2.4-7.3 2.9-9 .5-1.6 1-5.9 1-9.5 0-3.6-.6-8.7-1.4-11.5-.7-2.7-2.1-6.6-3.1-8.5-1.6-3.1-1.6-4.3-.6-9.7 .8-4.4 2.2-7.8 4.6-11 1.9-2.7 3.4-5.2 3.4-5.8 0-.5 .8-1.7 1.7-2.5 1-.8 3.3-4.9 5.2-9 2.8-6.3 3.4-8.7 3.5-15 .1-5.8-.4-8.3-1.9-10.9-1-1.9-3-4.2-4.4-5.3-1.4-1-4.1-2.2-6-2.7-1.9-.4-5.3-.4-7.5 0-2.2 .4-5.1 1.6-6.5 2.7-1.4 1-4 5-5.9 8.8-2.9 6-3.3 8-3.5 15.4-.1 4.7-.5 9-.8 9.5-.4 .6-3.5 .8-7.5 .6-5.8-.4-7.6 0-12.3 2.2-3.7 1.7-7.3 4.6-11.1 8.9-3 3.5-6.3 7.4-7.2 8.8-.9 1.4-2.1 4.8-2.6 7.5-.6 2.8-1.1 10.2-1.1 16.5-.1 6.3 .1 13.8 .5 16.5 .4 2.8 2.1 7.7 3.8 11 2.5 4.5 4.6 7 9.2 10.2 3.3 2.3 7.6 4.5 9.5 4.8 2.3 .4 5 0 8-1.2 2.9-1.2 6-3.7 9.2-7.5 2.6-3.2 4.8-6.2 4.8-6.8 0-.5 1.4-3 3-5.5 1.7-2.5 3-4.9 3-5.5 0-.5 .5-.8 1-.5 .6 .3 .8 2.9 .5 6.3-.3 3.1-1.3 8.4-2.1 11.7-.8 3.3-2.4 8.5-3.6 11.5-1.1 3-2.6 6.4-3.4 7.5-.8 1.1-6.1 6.9-11.7 12.8-6.7 7.1-11.7 11.5-14.7 12.9-2.5 1.2-5.3 2.8-6.4 3.7-1.4 1.3-4.1 1.6-13 1.5l-11.1 0-5.5-3c-3-1.6-6.9-4-8.6-5.4-1.8-1.4-3.8-3.8-4.7-5.5-.8-1.6-2-4.9-2.6-7.2-1-3.7-.8-4.8 .9-7.8 1.1-1.9 2.3-3.5 2.8-3.5 .4 0 2.3 .6 4.2 1.4 1.9 .8 5.5 1.7 8 2.1 3.9 .6 4.8 .4 6.6-1.7 1.2-1.3 2.4-3.3 2.8-4.5 .3-1.3-.3-5-1.4-8.3-1.1-3.3-2-6.7-2-7.5 0-.8-1.5-3-3.3-4.7-1.9-1.8-4.4-4-5.6-4.8-1.2-.8-4.2-4.6-6.6-8.5-2.3-3.8-5.9-11.7-7.9-17.5-1.9-5.8-4.4-14.8-5.5-20-1.1-5.2-2.3-14.9-2.7-21.5-.3-6.6-.7-16.9-.8-22.8 0-6 .1-11.3 .4-11.8 .3-.5 2.3 .5 4.5 2.3 2.2 1.8 6.5 5.6 9.5 8.4 3 2.8 7.5 6.2 10 7.5 3.5 1.8 6.2 2.3 12.1 2.3l7.7 .1 5-5c3.9-3.7 5.2-5.8 5.2-8 0-1.8-.8-3.8-2-5-1.1-1.1-2.1-2.6-2-3.2 0-.7-1.3-2.6-3-4.3-2.6-2.6-3.7-3-8.7-3-3.3 0-7.1 .6-8.8 1.5-1.6 .8-4.5 1.5-6.2 1.5-1.8 0-4.9-.8-7-1.7-2-1-4.5-2.8-5.5-4-1-1.3-2.7-2.3-3.8-2.3-1.1 0-3.3-.7-5-1.5-1.6-.8-3.5-2.7-4.1-4.2-.7-1.7-1.3-11.5-1.5-24.8-.1-12.1-.6-25.1-.9-29-.3-3.8-.7-8.6-.9-10.5-.3-1.9-.7-6-1.1-9-.3-3-1.5-8.2-2.5-11.5-1-3.3-3.5-9.6-5.6-14-2.1-4.4-6-11.3-8.8-15.3-2.8-4-5.4-7.3-5.8-7.2-.5 0-2.5-1.5-4.5-3.2l-3.6-3.3-6.4 0-6.5 0 .6-2.5c0.2-1.4 .8-3.8 1.1-5.5 .5-2.1 .3-3.2-.6-3.7-.8-.4-1.8-.8-2.4-.8ZM208.3 40.7c1.5 1.5 3 3.7 3.4 4.8 .3 1.1 1.3 2.7 2.2 3.6 .9 .9 2.8 4.8 4.3 8.5 1.5 3.8 3.4 9.4 4.3 12.4 .9 3 2.5 10.7 3.5 17 1 6.3 1.9 16.2 1.9 22 .1 5.8 .2 11.2 .3 12 .1 .8 .1 7.1 0 14-.1 10.4-.4 12.9-1.9 14.7l-1.8 2.3-12.5 .1c-6.9 .1-15.1 .1-18.2 0-4.4-.1-5.8-.5-5.8-1.6 0-.8 1.2-2.9 2.8-4.6 1.8-2.1 3.1-5.1 3.9-9.2 .6-3.4 1.2-8.6 1.2-11.4 .1-2.9-.5-6.5-1.3-8-.7-1.6-2.7-4-4.5-5.5-2.5-2.3-4.1-2.8-8.1-2.8-3 0-5.2-.5-5.5-1.2-.3-.7 .2-3.5 1.1-6.3 .9-2.7 2.7-7.2 4.1-10 1.4-2.7 4.4-9.7 6.8-15.5 2.3-5.8 5.8-13.9 7.8-18 1.9-4.1 3.9-9.3 4.3-11.5 .5-2.2 1.7-5 2.9-6.3l2-2.3 2.8 2.8ZM208 81.1c-.3 0-1.5 .5-2.7 1.2-1.3 .7-3.4 3.3-4.8 6-1.4 2.6-2.5 5.3-2.5 6-.1 .6 .7 2 1.7 2.9 1 1 2.4 1.8 3.1 1.8 .6 0 1.7-1.3 2.2-3 .7-2 1.7-3 3-3 1.1 0 2.5-.9 3-2 .6-1.1 .7-3.5 .3-5.2-.3-1.8-1.1-3.6-1.7-4-.6-.4-1.3-.8-1.6-.7ZM170.7 85.3l0.8 .7-.8 .8c-.4 .4-.8 0-.8-.8 0-.8 .4-1.2 .8-.7ZM169.5 93c0.8 0 1.8 .6 2.1 1.3 .3 .6 .1 2.2-.5 3.5-.6 1.2-1.5 2.2-2.1 2.2-.5 0-1.1-.8-1.3-1.7l-.3-1.8 .3-1.7c0.2-1 1-1.8 1.8-1.8ZM219.1 93.8c-1.6-.6-2.7-.1-4.6 2-1.4 1.5-2.6 3.4-2.6 4.2 .1 .8 .6 2.3 1.3 3.2 .7 .9 2 1.8 2.8 1.9 .8 .1 2.7-.1 4.3-.4 1.6-.4 2.9-1.6 3.3-2.9 .3-1.3 0-3.4-.9-4.8-.8-1.4-2.5-2.8-3.6-3.2ZM182 121c0.6 0 1.5 1.1 2 2.5 .6 1.4 1 4 1 5.8 0 2.6-1 4.1-5 8-2.7 2.6-6.1 4.9-7.5 5.2-1.4 .3-3.2-.1-4-.7-.9-.7-1.6-2.3-1.5-3.5 0-1.3 .9-2.7 2-3.3 1.4-.7 1.9-1.8 1.8-3.6-.2-1.8 .4-3 1.7-3.8 1.1-.6 3.5-2.3 5.2-3.8 1.8-1.6 3.8-2.8 4.3-2.8ZM80 124.2c1.9 .4 3.8 .8 4.3 .8 .4 0 1.6 1 2.7 2.3 1.1 1.2 2 3.4 2 5 0 1.9 .6 2.9 2.3 3.4 1.2 .4 5.3 .7 9.1 .8l6.9 0 2.1 2.8c1.8 2.4 2 3.9 1.8 10-.2 4-.8 8.3-1.4 9.7-.5 1.4-3.1 5.2-5.6 8.6-2.6 3.4-5.8 6.6-7.2 7.2-1.4 .6-3.4 2-4.5 3-1.1 1-2.9 2.3-4 2.9-1.1 .7-3.8 1.4-6 1.8-2.2 .3-4.7 .6-5.5 .6-.8 0-3.3-.4-5.5-.9-2.2-.5-4.8-1.2-5.7-1.6-1-.3-2.4-2.4-3-4.6-.7-2.2-1.6-4-2-4-.5 0-2.3-2.1-4.1-4.7l-3.3-4.8-.2-9.5c-.2-6.8 .2-9.9 1.1-11 .8-.8 2.2-3.5 3.1-6 1-2.5 3-5.6 4.4-7 1.5-1.4 4.3-3.1 6.2-3.7 1.9-.7 4.6-1.3 6-1.5 1.4-.2 4.1 0 6 .4ZM164.7 151.8c1.8 .1 3.6 .9 4.1 1.8 .4 1 .1 1.9-.8 2.5-.8 .5-1.7 .9-2 .9-.3 0-1.4-1.2-2.6-2.7l-2.1-2.8 3.4 .3ZM526.5 153.1c-1.1 .1-4.9 .7-8.5 1.5-3.6 .8-8.5 2.4-11 3.7-2.5 1.2-7.8 5-11.7 8.4-4 3.5-8.2 6.3-9.3 6.3-1.4 0-2.2-.9-2.7-2.7-.3-1.6-2.1-4.6-3.8-6.8-2-2.4-5.3-4.9-8.6-6.4-3-1.3-7.1-2.4-9.1-2.5-2.8-.1-4.4 .6-6.8 2.9-1.7 1.7-3 3.5-3 4 0 .6-1.3 2.8-3 5-2.5 3.3-3.1 4.9-3 9 0 3.2 .7 6.2 2 8.3 1.1 1.7 3.7 4 5.8 4.9 2.8 1.3 6.4 1.8 14.4 1.8l10.8 0 0 2c0 1.1-.4 4.7-1 8-.5 3.3-1.1 12.8-1.4 21-.3 8.3-1.2 18.8-2.1 23.5-.9 4.7-1.8 10.1-2.1 12-.2 1.9-.6 7.6-.9 12.5-.3 5-.8 10.6-1.1 12.5-.3 1.9-1 9.8-1.5 17.5-.5 7.7-.7 14.6-.4 15.3 .3 .6 2 1.2 3.8 1.2 2.2 0 4.1-.8 6-2.7l2.7-2.8-.5-6.2c-.3-3.5-.2-6.5 .3-6.7 .4-.2 .6-4.2 .5-8.8-.1-4.5 .3-13.7 .8-20.3 .6-6.6 1.4-13.6 1.9-15.5 .5-1.9 1.4-6.6 2-10.5 .6-3.8 1.3-8.1 1.5-9.5 .2-1.4 1.1-7.7 1.9-14 .8-6.3 1.8-16.6 2.3-22.8l0.8-11.2 3.5-1.1c1.9-.7 6.4-1.1 10-1 3.6 0 10.1 .6 14.5 1.2 4.4 .6 10.3 1.9 13 2.9 2.8 1.1 8.2 4.3 12 7.1 4 3 9.5 6 12.8 7.1 3.4 1.1 7 1.6 9 1.2 1.7-.3 5.6-1.6 8.5-3 4.1-1.9 5.6-3.3 7.2-6.6 1.1-2.4 2-5.4 2-6.8 0-1.4-.8-4.5-1.7-7-.9-2.5-3.5-6.4-5.7-8.8-2.3-2.3-7.2-5.8-11.1-7.8-3.8-2-9.2-4.3-12-5.1-2.7-.7-9.7-2-15.5-2.8-5.8-.8-11.4-1.4-12.5-1.4ZM534.2 164.3c4.7 .1 7.2 .6 7.5 1.5 .1 .6 .8 1 1.3 .7 .6-.3 1 .8 1 2.5 0 2.5 .3 2.9 2 2.5 1.1-.3 2 0 2 .5 0 .6-.4 1-1 1-.5 0-.8 .5-.5 1 .3 .6 .1 1.2-.5 1.5-.5 .3-1-.2-1-1 0-.8-.4-1.5-1-1.5-.6 0-.8 1.5-.5 3.5 .3 1.9 .2 3.5-.2 3.5-.5 0-3.5-.9-6.8-2.1-3.3-1.1-8-2.4-10.4-2.7-2.6-.4-4.6-1.3-4.9-2.2-.4-1.2-.2-1.3 1.1-.2 1.1 .7 1.9 .8 2.2 .2 .3-.6 1.5-.7 3.3-.1 1.5 .6 3.1 .7 3.5 .3 .4-.4 .7-.1 .7 .6 0 .6 .9 1.2 2 1.2 1.1 0 2.2-.3 2.3-.7l0.4-.8-.4 1.3c-.1 .6 .3 1.2 1 1.2 .6-.1 2.3-1 3.7-2.1 2.2-1.8 2.4-2.4 1.5-4.7-.6-1.5-1.8-2.8-2.8-2.9-1-.2-1.7 .4-1.7 1.2 0 .8-.4 1.3-1 1-.5-.3-1 0-1 .5 0 .6-.4 1-1 1-.5 0-1.2-.9-1.5-2-.3-1.1-.1-1.8 .5-1.5 .6 .3 1.8 .1 2.8-.5 1.4-.8 1.2-.9-1.3-1-1.6 0-3.6 .5-4.4 1.2-1.1 1-1.4 1-1.7 .1-.2-.7-.8-1.1-1.4-.8-.5 .3-1 .1-1-.5 0-.6 2.9-.9 7.2-.7ZM518 165.1c1.4 0 3.4 .6 4.5 1.4 1.1 .8 2.3 1.2 2.8 1 .4-.3 .7 0 .7 .5 0 .6-.9 1-2 1-1.1 0-2-.4-2-1 0-.5-.7-1.2-1.5-1.5-.8-.3-2.6 .1-4 .8-1.4 .6-2.5 1.8-2.5 2.5 0 .6 .8 1.5 1.8 1.9 1 .4 1.8 .2 2-.5 .1-.7 .7-1.2 1.2-1.2 .6 0 .9 .9 .8 1.9-.3 1.6-1 1.9-3.8 1.7-2.7-.3-3.6-.8-3.7-2.5-.2-1.5-.8-1.9-2-1.5l-1.8 .6 1.5-1.7c0.8-1 2.4-2.1 3.5-2.6 1.1-.4 3.1-.8 4.5-.8ZM546.5 166c0.9 .8 1.6 1.1 1.6 .5 0-.5 .4-.2 .9 .8 .7 1.1 1.5 1.4 2.6 1 1.4-.7 1.5-.3 1 2-.4 1.8-.2 2.7 .7 2.7 .6 0 .8 .3 .4 .7-.5 .5-2 .9-3.3 1.1-2.1 .2-2.3-.1-1.4-1.8 .6-1.1 1-2.4 1-3 0-.5-.3-.9-.7-.9-.5 .1-1.5 .1-2.3 0-.8 0-1.6-1.1-1.8-2.3-.2-2.1-.1-2.1 1.3-.8ZM464.8 166.1c1.9-.1 2.3 .5 2.7 4.9 .3 2.8 1 5 1.5 5 .6 0 1.2-.9 1.5-2 .3-1.1 1-2 1.5-2 .6 0 1.2 .7 1.5 1.5 .3 .8-.3 1.9-1.2 2.5-1.6 .8-1.6 1.1-.3 1.9 1.2 .7 1.1 1-.7 1.5-1.5 .4-2.3 .2-2.3-.6 .1-1-.2-1-1.2-.2-.7 .6-2.8 1.2-4.5 1.3-2.5 .1-3.8-.6-5.3-2.6-1.2-1.6-2.1-4-2-5.5 0-1.6 .2-2.8 .5-2.8 .3 0 1.3 .7 2.3 1.6 .9 .8 2.4 1.3 3.2 1 .8-.4 2.3 .2 3.3 1.1 1 1 1.8 1.6 1.7 1.3 0-.3-.4-2-1-3.7l-1-3.3-2.5 1.5-2.5 1.5-.5-1.5c-.3-.9 .2-1.7 1.3-1.9 .9-.2 2.7-.4 4-.5ZM469.7 168.3l0.8 .7-.8 .8c-.4 .4-.8 0-.8-.8 0-.8 .4-1.2 .8-.7ZM554.5 169c0.6 0 1.7 .4 2.5 1 .8 .5 1.3 1.1 1 1.4-.3 .3-1.4-.1-2.5-.9-1.1-.8-1.5-1.4-1-1.5ZM529.7 170.3l0.8 .7-.8 .8c-.4 .4-.8 0-.8-.8 0-.8 .4-1.2 .8-.7ZM507.5 171c0.8 0 1.5 .5 1.5 1 0 .6-.4 1-1 1-.5 0-1.2-.4-1.5-1-.3-.5 .2-1 1-1ZM460.7 173.6c-1-.1-2 .1-2.3 .4-.2 .3 .8 1.1 2.4 1.8 1.5 .8 3.5 1.6 4.5 1.8 .9 .2 1.9 .1 2.2-.3 .2-.5-.8-1.4-2.3-2.2-1.5-.8-3.5-1.5-4.5-1.5ZM566.8 174.8c1.8 1.2 3.4 3.1 3.7 4.2 .3 1.1 1 2 1.5 2 .6 0 1 1.8 1 4 0 2.2-.4 4-1 4-.5 0-1.3-.8-1.6-1.7l-.5-1.8-1.1 2c-.8 1.5-.7 2.2 .3 2.7 1 .5 .6 .9-1.1 1.3-1.4 .3-3.8 .2-5.4-.2-1.6-.5-3.1-1.5-3.4-2.3-.3-.8-.1-1.2 .4-.8 .5 .5 1.5 .3 2.2-.2 .6-.6 1.7-.9 2.3-.7 .6 .1 1.4-.5 1.7-1.3 .4-1 .2-1.2-.6-.7-.7 .4-1.2 .1-1.2-.8 0-.8 .5-1.5 1-1.5 .6 0 1.2 .5 1.5 1 .3 .6 1.6 1 3 1 1.4 0 2.5-.3 2.5-.7 .1-.5-1.2-1.4-2.7-2.1-1.5-.8-4-1.2-5.5-1-1.6 .2-2.6-.1-2.4-.7 .3-.5-.1-1.6-.7-2.3-.9-1-.8-1.2 .6-1.2 1.1 0 1.4 .4 1 1.2-.6 .9-.3 1 1 .5 .9-.4 1.9-.2 2.2 .3 .3 .6 1 .8 1.5 .5 .6-.3 .9-1.1 .7-1.7-.2-.7-1-1.3-1.8-1.3-.7 0-1.6-.9-1.8-2l-.4-2 3.1 2.3ZM559.5 174c0.3 0 .7 .5 1 1 .3 .6 .1 1-.5 1-.5 0-1-.4-1-1 0-.5 .2-1 .5-1ZM540.5 176c-.8 0-1.5 .2-1.5 .5 0 .3 .7 .7 1.5 1 .8 .3 1.5 .1 1.5-.5 0-.5-.7-1-1.5-1ZM549.5 176c0.3 0 .7 .5 1 1 .3 .6 .1 1-.5 1-.5 0-1-.4-1-1 0-.5 .2-1 .5-1ZM553.5 176c0.8 0 1.5 .5 1.5 1 0 .6-.4 1-1 1-.5 0-1.2-.4-1.5-1-.3-.5 .2-1 1-1ZM547.3 179.9c0.5 1.5 1.2 1.9 2.5 1.4 1-.3 1.4-.2 1 .3-.5 .5-.3 1.5 .2 2.2 .6 .7 1.8 .9 3.1 .5 1.8-.7 2-.5 1.4 1.2l-.7 2 1.4-1.7c0.7-1 2.2-1.8 3.3-1.8l2-.1-2 2.1c-1.1 1.1-2.6 2.1-3.2 2-.7 0-3.6-1.5-6.3-3.2-2.8-1.8-5-3.7-5-4.3 0-.5 .3-1.4 .7-1.8 .5-.4 1.1 .1 1.6 1.2ZM555 180c2 0 2.3 .2 1.3 1.2l-1.3 1.3-1.2-1.3c-1.1-1-.8-1.2 1.2-1.2ZM558.7 181.3l0.8 .7-.8 .8c-.4 .4-.8 0-.8-.8 0-.8 .4-1.2 .8-.7ZM399.8 182.4c-3.6-.5-4.6-.2-6.3 1.6-1.4 1.6-1.9 3.4-1.8 6.4 .1 2.2 .6 4.3 1.1 4.6 .5 .3 1.4 2.1 2 4 .6 1.9 1.7 4.1 2.4 4.8 .7 .6 3.3 1.5 5.8 1.8l4.5 .6 3.8-4.3 3.8-4.4-.6-4c-.3-2.2-1.4-4.7-2.3-5.6-.9-.8-3.2-2.3-4.9-3.2-1.8-.9-5.2-2-7.5-2.3ZM356.3 184c0.9 0 1.9 .5 2.2 1 .3 .6-.3 3.8-1.2 7.3-.9 3.4-2.2 6.9-2.9 7.7-.6 .8-2.6 4.3-4.3 7.8-1.7 3.4-3.5 6.2-4.1 6.2-.5 0-1-.8-1.1-1.7-.1-1-.3-3.6-.5-5.8-.2-2.2 .5-7 1.6-10.7 1.5-5.2 2.8-7.4 5.3-9.3 1.7-1.4 4-2.5 5-2.5ZM151.3 194c0.4 0 .1 2.3-.5 5.1-.7 2.9-1.7 5-2.3 4.8-.5-.2-1-.6-1-.9 .1-.3 .7-2.4 1.5-4.8 .8-2.3 1.8-4.2 2.3-4.2ZM175 205c-.5 0-1.2 .5-1.5 1-.3 .6-.2 1.2 .3 1.5 .4 .2 1.1 .1 1.5-.3 .4-.4 .7-1 .7-1.4 0-.5-.4-.8-1-.8ZM147.8 213c0.1 1.4 0 2.7-.3 3l-.5 .5-.5-.5c-.2-.3-.1-1.6 .3-3l0.7-2.5 .3 2.5ZM326.5 219.3c1.7 .5 4.1 1.9 5.4 3.1 1.3 1.1 2.9 3.5 3.6 5.1 1.1 2.5 1 3.8-.6 8.3-1.6 4.4-1.7 6.1-.9 11.5 .9 4.9 .8 7.4-.4 11.7-.8 3-2.3 8-3.3 11-1.3 3.6-2.8 5.9-4.4 6.8-1.5 .8-4.1 1-6.9 .7-2.5-.3-6.3-1.3-8.5-2.2-2.2-.9-4.9-2.8-6-4.2-1.7-2.2-2-4.1-1.9-13.1 0-5.8 .1-12.1 .3-14 .1-1.9 1.7-6.4 3.4-10 1.8-3.6 4.5-7.6 6.1-9 1.6-1.4 4.7-3.5 7-4.6 3.3-1.8 4.7-2 7.1-1.1ZM390 238.8c-1.4-.3-3.3-.4-4.2-.2-1 .2-1.8 1.2-1.8 2.2 0 .9 .6 7.3 1.4 14.2 .8 6.9 1.7 16.3 2.1 21 .3 4.7 .8 11 1.1 14 .4 4 0 6.8-1.3 10.2l-1.8 4.7 2 2.1c1.2 1.3 3.2 2.1 5.3 2 2.2 0 3.6-.7 4.6-2.2 .7-1.3 1.4-5 1.4-8.3 .1-3.3-.3-7.6-.8-9.5-.5-1.9-1.6-10.7-2.3-19.5-.8-8.8-1.2-18.5-1-21.5 .3-3.6 0-6.1-.9-7.1-.7-.9-2.4-1.9-3.8-2.1Z" style="fill:rgb(0,0,0);"/>
</g>
<g id="g" style="mix-blend-mode:screen;">
<path d="M197.7 13.4c-.7-.1-2.4 .4-3.9 1.2-1.6 .8-2.8 2-2.8 2.7 0 .6-1.2 2.1-2.6 3.2-1.4 1.1-3.9 4-5.5 6.5-1.6 2.5-2.9 5.1-2.9 5.8 0 .6-1.1 2.9-2.4 5-1.4 2-3 5.7-3.6 8.2-.7 2.5-1.6 5-2.1 5.5-.4 .6-1.8 4.4-2.9 8.5-1.1 4.1-2.9 9.8-4 12.5-1 2.8-2.2 6.7-2.5 8.8-.3 2-.9 4.5-1.4 5.5-.5 .9-1.4 7.8-2.1 15.2-.6 7.4-1.6 15.1-2.2 17-.7 2.5-.7 4.5 .2 7 .8 2.4 .9 5.1 .3 8.5-.6 3.4-.4 6.7 .4 10.3l1.3 5.2-3.2 3.1c-1.8 1.7-4.3 3.5-5.5 4-1.3 .5-2.7 2-3.3 3.4-.5 1.4-.7 3.5-.4 4.8 .4 1.7-.3 2.9-3.3 5.3-2.1 1.8-5.1 3.8-6.6 4.5-1.5 .8-2.7 1.7-2.7 2.2 0 .4-2.5 1.6-5.5 2.7-3 1.1-7.2 3.1-9.2 4.5-2.1 1.4-4.4 2.5-5 2.5-.7 0-3.4 1.2-6 2.7-2.7 1.5-6.4 2.9-8.3 3.1-3.1 .4-3.4 .3-2.6-1.4 .4-1 1.1-2.7 1.5-3.7 .3-1 1.4-2 2.4-2.2 .9-.3 1.7-.9 1.7-1.5 0-.5 1.8-2.8 4-5 2.2-2.2 4-4.4 4-5 0-.5 .6-1.6 1.3-2.2 .7-.7 3-4.9 5.2-9.3 3.5-7.2 3.9-8.7 3.7-14.7-.1-3.8-.6-8.8-1.2-11.3-.5-2.5-1.9-6.5-3-9-1.7-3.9-2.4-4.5-5-4.5-1.6 0-3-.3-3-.7 0-.5 .4-1.2 .9-1.8 .5-.5 1.2-4.4 1.6-8.5l0.7-7.5-2.6-1.7c-1.4-1-4.1-1.8-5.8-1.8-2.3 0-4.4 .9-7 3.2-2.1 1.8-4.9 5.4-6.3 8.1l-2.5 4.7-2.7-2.2c-2.2-1.8-4.1-2.3-9.3-2.3-4.8-.1-8.1 .6-12.7 2.5-3.4 1.4-7.5 3.6-9.1 5-1.5 1.4-3.6 3.6-4.5 5-1 1.4-1.9 3.2-2.1 4-.1 .8-.8 2.9-1.5 4.5-.7 1.7-1.3 3.9-1.4 5-.1 1.1-.7 2.6-1.4 3.3-.9 .8-1.2 3.1-.9 7 .3 3.1 .8 7.1 1.2 8.7 .3 1.7 1.4 3.8 2.3 4.8 .9 .9 2.6 1.9 3.9 2.2l2.2 .5-1 3.3c-.7 2.3-.5 5.1 .8 10.6l1.7 7.4 6.5 6.9c4.2 4.5 8.6 7.9 12.5 9.9 3.3 1.6 8.5 3.3 11.5 3.7 3 .4 8 .4 11 0 3-.4 9.1-1.9 13.5-3.4 4.4-1.5 11.8-4.7 16.5-7.1 4.7-2.4 9.1-4.8 9.8-5.3 .6-.6 1.5-1 2-1 .4 0 1.5-.8 2.5-1.8 .9-.9 2-1.4 2.5-.9 .4 .4 .1 2.6-.6 5-.7 2.3-1.8 5.8-2.4 7.7-.6 1.9-1.2 5.8-1.4 8.5-.2 2.8-.5 7-.8 9.5-.4 2.5-.9 5.4-1.2 6.5-.3 1.1-.8 7.4-1 14-.2 6.6-.5 14.5-.8 17.5-.3 3-1.2 6.9-2 8.5-.9 1.7-1.6 3.9-1.6 5 0 1.1-.7 3.4-1.5 5-.9 1.7-1.5 3.7-1.5 4.5 0 .8-.3 1.9-.7 2.3-.4 .5-.8 1.2-.8 1.5 0 .4-.6 2.3-1.4 4.2-.7 1.9-2.1 4.9-3 6.7-.9 1.7-2 2.9-2.6 2.5-.6-.4-.7-.2-.2 .6 .4 .6 .3 2-.2 3-.5 .9-2.2 4.4-3.6 7.7-1.5 3.3-4.9 8.3-7.6 11-3.5 3.6-4.9 5.8-4.9 8-.1 2.4 .6 3.4 3.4 5l3.4 2 2.6-1.7c1.4-1 3.3-1.8 4.1-1.8 .8 0 2.2-1.1 3-2.5 .8-1.4 1.8-2.3 2.3-2 .4 .2 2.1-.3 3.7-1.2 1.7-.9 4.6-2.8 6.5-4.3 1.9-1.5 5.2-4.9 7.2-7.6 2.1-2.7 3.9-6 4.1-7.4 .2-1.4 .6-2.9 .9-3.5 .4-.5 1.6-4.1 2.8-8 1.2-3.8 2.5-7.7 3-8.5 .4-.8 1.1-3.7 1.4-6.5 .4-2.7 1.8-8.8 3.2-13.5 1.4-4.7 3-9.6 3.6-11 .5-1.4 1.2-4.3 1.5-6.5 .3-2.2 .8-4.7 1.3-5.5 .5-.8 1.3-4.2 2-7.5 .6-3.3 1.1-6.7 1.1-7.5 .1-.8 .7-4.4 1.5-8 .7-3.6 1.8-10.5 2.4-15.5 .6-4.9 1.8-11.2 2.6-14 .8-2.7 1.4-5.4 1.3-6-.2-.5 .5-3.7 1.5-7 1-3.3 1.5-6.8 1.2-7.7-.3-1 0-2.3 .7-2.8 .6-.6 6.8-1.6 13.7-2.4 6.9-.7 17.6-1.4 23.8-1.5l11.2-.1 1 2c0.7 1.4 .6 4.9-.5 11.3-.7 5-1.5 16.9-1.6 26.2-.2 9.4 0 19 .4 21.5 .4 2.5 .8 8.1 1 12.5 .2 4.6 1.1 9.6 2 11.8 .9 2 1.6 5.8 1.6 8.5-.1 3.8 .5 5.8 3.5 10.5 2 3.1 4.5 6.6 5.6 7.7 1.1 1.1 3 3.9 4.1 6.3 1.2 2.3 3 5.1 4.1 6.2 1.5 1.5 1.7 2.6 1.1 4.5-.4 1.4-.8 6.3-.9 11 0 4.7-.4 11.7-.8 15.5-.7 6-.6 7.7 1.1 11.5 1.1 2.5 4.3 7.1 7.1 10.3 2.9 3.1 5.7 5.7 6.2 5.7 .6 0 2.9 .9 5.3 2 2.3 1.1 6.9 2.4 10.2 2.8 3.3 .4 10.1 .6 15 .5 6-.1 11.3-.9 16-2.4 3.9-1.2 7.6-2.6 8.3-3.1 .6-.4 1.8-.5 2.5-.1 .8 .5 .9 .4 .5-.5-.5-.8 .2-1.6 2-2.4 1.5-.7 4.1-2.2 5.7-3.3 1.7-1.1 5.6-4 8.7-6.5 3.1-2.5 5.9-5.3 6.2-6.2 .4-1 1.1-1.6 1.6-1.3 .6 .3 .9 .2 .8-.2 0-.5 1.1-3.5 2.6-6.8 1.6-3.3 4.1-10.3 5.8-15.5 1.6-5.2 3.8-12.6 4.8-16.5 1-3.8 2.5-9 3.4-11.5 1-2.7 1.6-7.6 1.6-12.5 0-6.5-.6-9.4-3-15.5-2.4-6-2.9-8.4-2.5-12 .4-2.6 2-6.6 3.9-9.5 1.8-2.7 3.5-6 3.9-7.2 .4-1.3 1.2-2.3 1.7-2.3 .6 0 2-1.9 3.3-4.2 1.2-2.4 3-6.3 3.9-8.8 .9-2.5 1.9-6.5 2.2-9 .4-2.5 .1-7-.5-10-.8-3.8-2.1-6.5-4.3-8.6-1.7-1.7-4.9-3.6-7.1-4.3-2.2-.6-5.8-.8-8-.5-2.2 .4-5.6 1.7-7.5 2.9-2.5 1.7-4.5 4.5-7 9.7-3 6.5-3.4 8.2-3.5 16.3l-.1 9-3-.2c-1.6-.1-4.5-.3-6.4-.4-1.9-.1-6 .8-9 1.9-3 1.2-6.8 3.4-8.5 5-1.6 1.5-4.8 4.8-6.9 7.3-2.1 2.4-4.7 6.2-5.7 8.4-1 2.2-2.2 7.2-2.6 11-.5 3.9-.7 12.1-.6 18.3 .3 9.4 .7 12.2 2.9 17.5 1.5 3.4 3.4 7.2 4.3 8.3 .9 1.2 4.3 4 7.6 6.3 5.1 3.4 6.9 4.1 11.5 4.3 4.4 .1 6.3-.4 9.8-2.5 2.3-1.5 5.1-4.2 6.1-5.9 1.1-1.8 2.4-3.7 2.9-4.3 .5-.5 2.1-3.4 3.5-6.2 1.5-2.9 3-5.3 3.5-5.3 .4 0 .6 1.7 .5 3.8-.1 2-1.3 7.5-2.6 12.2-1.4 4.7-3.2 10.3-4 12.5-.9 2.2-3.7 6.4-6.4 9.4-2.6 3-7.6 8.3-11 11.8-3.7 3.7-8.8 7.5-12.3 9.3-3.3 1.7-6.2 3.3-6.4 3.8-.2 .4-3 .8-6.3 1-3.2 .2-6.1 .5-6.5 .8-.5 .2-1.8-.1-3-.8-1.3-.7-3.4-1.1-4.8-1-1.5 .2-5.3-1.4-9.5-4-5.6-3.4-7.5-5.4-9.7-9.3-1.4-2.8-2.7-6.3-2.9-8-.1-1.6 .4-4.3 1.2-5.8 .8-1.5 1.7-2.7 2.2-2.7 .4 0 1.9 .6 3.5 1.4 1.5 .8 5 1.7 7.7 2.1 3.8 .5 5.6 .2 7.3-.9 1.2-.9 2.7-3.3 3.3-5.3 1-3.3 .7-4.9-1.8-12.2-2.5-7.5-3.4-8.9-8.3-13.1-3-2.6-7.2-7.5-9.2-10.8-2.1-3.4-3.9-7-4.1-7.9-.2-1-1-3.4-1.9-5.3-.8-1.9-2.5-6.9-3.7-11-1.3-4.1-2.4-8.4-2.6-9.5-.1-1.1-1-6.9-1.9-13-.9-6-1.7-18.5-1.9-27.8-.1-9.2 .1-16.6 .5-16.5 .3 .2 2.3 1.7 4.3 3.3 2.1 1.7 5.8 5 8.4 7.5 2.6 2.5 6.5 5.3 8.6 6.4 2.2 1 5.1 2.1 6.5 2.5 1.4 .3 5.3 .4 8.8 .3l6.2-.2 5.4-4.7c4.6-4 5.5-5.4 5.6-8.3 0-2.2-.8-4.6-2.2-6.5-1.3-1.6-2.4-3.7-2.5-4.5-.2-.8-.4-1.5-.5-1.6-.2 0-1.6-1-3.3-2.2-2.3-1.7-4.3-2.3-8.5-2.2-3 0-7.3 .7-9.5 1.6-2.6 1-5.4 1.4-7.7 1-2.4-.4-5.2-1.9-7.5-4.1-2.1-1.9-4.7-3.4-5.8-3.5-1.1 0-3.2-.5-4.7-1.2-1.6-.8-3.2-2.6-3.8-4.3-.6-1.6-1.2-14.5-1.5-28.5-.2-14-.9-27.1-1.4-29-.5-1.9-.6-3.9-.3-4.3 .4-.4 .1-4.5-.7-9-.7-4.5-2.4-11.3-3.7-15.2-1.3-3.8-4-10.4-6-14.5-2-4.1-3.9-7.7-4.3-8-.3-.3-1.2-1.6-1.9-3-.7-1.4-2.9-4.2-5-6.2-2-2-5.2-5.1-6.9-6.7-1.8-1.7-5-3.5-7-4-2.1-.4-4.9-.4-6.3 .1-1.4 .4-2.6 .7-2.8 .6-.1-.2 .3-2.4 1-5 1.1-3.9 1.1-5 0-6-.7-.7-1.9-1.4-2.5-1.4ZM206.7 40.3c1 1 2.8 3.5 4 5.5 1.3 2 3.7 6.6 5.4 10.2 1.7 3.6 3.5 7.9 4 9.5 .4 1.7 1.3 4.8 1.9 7 .6 2.2 1.6 6.3 2.1 9 .6 2.8 1.2 7.5 1.4 10.5 .3 3 .7 9.6 1 14.5 .3 5 .5 15.3 .5 23 0 7.7-.4 15.5-.8 17.4-.4 1.8-1 3.5-1.4 3.7-.5 .2-8.6 .4-18 .4-9.5 0-17.5-.3-17.8-.5-.3-.3 .8-1.8 2.3-3.3 1.6-1.5 3.2-4.6 3.8-7.2 .6-2.5 1.3-7.9 1.6-12 .5-6.3 .2-8.2-1.6-11.7-1.1-2.4-3.1-5.1-4.4-6-1.3-1-4.5-1.9-7.3-2.1-2.7-.2-5.2-.6-5.6-1-.4-.4 .4-3.8 1.8-7.7 1.4-3.8 3.2-7.9 4-9 .8-1.1 1.4-2.8 1.4-3.7 0-1 .5-1.8 1-1.8 .6 0 .8-.3 .6-.7-.3-.5 .5-2.6 1.8-4.8 1.2-2.2 2.6-5.3 3-7 .4-1.6 2.3-6.4 4.3-10.5 2-4.1 3.6-8.1 3.7-8.7 0-.7 .3-1.3 .6-1.3 .3 0 .6-.6 .7-1.2 .2-.7 .5-2.8 .8-4.5 .3-1.8 1-3.3 1.5-3.3 .6 0 1.2-1 1.5-2.2l0.4-2.3 1.8 1.8ZM208.3 81.1c-1.6 .1-3.6 .3-4.5 .5-1 .2-2.9 2.7-4.3 5.4-1.4 2.8-2.5 5.8-2.5 6.8 0 .9 .7 2.7 1.5 4 .9 1.3 2.5 2.2 4 2.2 1.9 0 2.6-.6 3-2.5 .3-1.7 1.7-3 4-4 3-1.3 3.5-2 3.5-5 0-1.9-.4-4.4-1-5.5-.7-1.3-1.9-2-3.7-1.9ZM218.5 93c-1.4 0-3.6 1.2-5 2.8-1.4 1.5-2.5 3.6-2.5 4.7 0 1.1 .4 2.5 .8 3.2 .4 .6 1.8 1.6 3.2 2.1 1.7 .7 3.4 .6 5.5-.2 1.7-.7 3.3-2 3.8-2.9 .4-.9 .7-2.5 .7-3.4-.1-1-1-2.8-2-4-1.1-1.3-3.1-2.3-4.5-2.3ZM170 94c0.6 0 1 .7 1 1.5 0 .8-.4 1.7-1 2-.5 .3-1.3 .3-1.7 0l-.8-.5 .8-1.5c0.4-.8 1.2-1.5 1.7-1.5ZM182 122c0.6 0 1.3 1.5 1.6 3.3 .4 1.7 .4 4.3 0 5.7-.3 1.4-2.6 4.2-5.1 6.3-2.5 2-5.7 3.8-7.2 4-2.5 .2-2.8-.1-2.8-2.8 0-2 .5-3 1.5-3 1 0 1.6-1.2 1.8-3.7 .1-2.3 .7-3.8 1.5-3.8 .6 .1 2.7-1.3 4.5-3 1.7-1.6 3.7-3 4.2-3ZM526.3 152.1c-1 .1-5.4 .9-9.8 1.8-4.4 1-9.9 2.9-12.2 4.4-2.4 1.5-4.5 3.2-4.8 3.7-.3 .6-.9 .8-1.5 .5-.5-.3-.9-.1-.7 .4 .1 .4-2 2.7-4.8 5-2.7 2.2-5.6 4.1-6.2 4.1-.7 0-1.3-.9-1.3-2 0-1.1-1.5-3.6-3.2-5.6-1.8-2-4-4.4-4.8-5.2-.8-.9-3.5-2.4-6-3.5-2.5-1.1-6.6-2.2-9.2-2.4-2.8-.2-4.8 .1-4.8 .7 0 .6-.7 1-1.5 1-.8 0-1.7 .8-2 1.8-.3 .9-1.1 2.6-1.8 3.7-.6 1.1-2.4 3.6-3.9 5.5-1.4 1.9-2.7 4.2-2.8 5-.1 .8-.2 3.6-.1 6.3 .1 3.8 .7 5.3 3.4 8.2 1.9 2.2 5.1 4.2 8.2 5.2 3.8 1.2 7 1.4 13.3 .9l8.2-.6-.6 6.3c-.3 3.4-.8 6.5-1 7-.2 .4-.6 7.6-.9 16-.3 8.3-1.2 18.7-2 23-.8 4.2-1.5 10-1.5 12.7 0 2.8-.4 5.2-1 5.5-.5 .3-1 4-.9 8.3 0 4.2-.4 10.6-1 14.2-.6 3.6-1.3 10.6-1.5 15.5-.3 5-.7 9.9-.9 11-.2 1.1 .1 3 .7 4.3 .9 1.9 1.9 2.2 5.6 2.2 4-.1 4.8-.5 6.8-3.5 1.8-3 2.1-4.4 1.7-9.5-.3-3.3-.2-6.2 .3-6.4 .4-.2 .6-6.9 .5-14.8 0-7.8 .3-15.6 .8-17.3 .4-1.6 1.1-4.6 1.4-6.5 .3-1.9 1-6.6 1.5-10.5 .6-3.8 1.5-9 2-11.5 .6-2.5 1.2-6.3 1.5-8.5 .4-2.2 1.4-12.7 2.3-23.3 1.4-16.3 2-19.5 3.5-20.3 .9-.5 5.2-.9 9.5-1 4.2 0 10.6 .4 14.2 1 3.6 .5 8.5 1.5 11 2.1 2.5 .7 6.1 2.1 8 3.3 1.9 1.1 5.8 3.8 8.5 5.9 2.8 2 7.8 4.6 11.3 5.8 3.4 1.1 7.2 1.8 8.5 1.6 1.2-.2 4-.9 6.2-1.4 2.2-.6 5.4-2.3 7-3.9 1.7-1.5 3.8-3.9 4.7-5.3 .8-1.4 1.7-3.8 1.8-5.5 .1-1.6 .1-3.2 0-3.5-.1-.3-.4-1.6-.6-3-.3-1.4-.9-2.6-1.4-2.7-.6-.2-1-1.3-1-2.5 .1-1.5-1.6-3.8-4.7-6.6-2.6-2.3-6.8-5.2-9.3-6.5-2.5-1.2-4.7-2.5-5-2.8-.3-.3-4.1-1.7-8.5-3.1-4.4-1.5-12.4-3.1-17.7-3.7-5.4-.6-10.6-1.1-11.5-1ZM165.8 153c1.2 0 2.2 .5 2.2 1 0 .6-.4 1.2-1 1.5-.5 .3-1.6-.2-2.2-1-1.1-1.4-1-1.6 1-1.5ZM398.3 181.3l-4.3-.3-2 3.3c-1.1 1.7-2 4.1-2 5.2 0 1.1 .6 2.9 1.5 4 .8 1.1 1.5 2.6 1.5 3.3 0 .6 .8 2.8 1.8 4.7 1.1 2.5 2.9 4.1 5.5 5 2 .8 4.2 1.5 4.7 1.5 .6 0 3.3-2.1 6-4.7 3.5-3.3 5.1-5.6 5.1-7.3-.1-1.4-.5-4-1.1-5.7-.8-2.7-2.1-3.8-6.7-6-3.2-1.5-7.7-2.8-10-3ZM175 204c-1.1 0-2.2 .5-2.5 1-.3 .6 .1 1.7 .8 2.5 .6 .9 1.5 1.6 2 1.5 .4 0 .5-.4 .2-1-.3-.5 0-1 .5-1 .6 0 1-.7 1-1.5 0-.8-.9-1.5-2-1.5ZM323.8 219.1c0.6-.1 1.2 .4 1.2 .9 0 .6-.4 .9-.8 .8-.4-.2-2.4 .8-4.3 2.1-1.9 1.3-5.1 4.4-7.1 7-2.3 2.7-4.7 7.5-6 11.6l-2.3 7-.3-4c-.2-2.2 .2-5.1 .9-6.5 .6-1.4 1.9-4.1 2.8-6 .9-1.9 2.9-4.6 4.5-6 1.6-1.4 4.5-3.5 6.5-4.7 2-1.1 4.2-2.2 4.9-2.2ZM388 237.3c-2.2-.3-3.9 0-4.6 .9-.8 .9-.9 3.7-.3 8.8 .4 4.1 1 9.1 1.4 11 .4 1.9 .8 3.7 1 4 .2 .3 .7 6.6 1.1 14 .5 7.4 .9 15.3 .9 17.6 0 2.2-.7 5.3-1.5 6.8-1.1 2-1.3 3.3-.5 5.4 .7 1.8 2.3 3.1 4.8 4 2 .6 4.4 .9 5.3 .5 .9-.5 2.3-2.1 3-3.8 1-2.1 1.3-5.2 1-10.5-.3-4.1-.7-8.8-1-10.5-.3-1.6-1.1-9.3-1.9-17-.8-7.7-1.2-16.2-.9-19 .2-2.7 .2-6.2-.2-7.7-.3-1.6-1.4-3.1-2.3-3.4-1-.4-3.4-.8-5.3-1.1Z" style="fill:rgb(0,255,0);"/>
<path d="M196.5 14c-.5 .1-2.9 2.2-5.3 4.8-2.4 2.6-5.7 6.6-7.3 9-1.6 2.3-2.9 4.7-2.9 5.2 0 .6-1.1 3.1-2.5 5.8-1.4 2.6-3.6 7.6-4.9 11.2-1.3 3.6-3.3 9.9-4.5 14-1.2 4.1-2.8 9-3.6 10.8-.8 1.7-1.5 4.6-1.5 6.2 0 1.7-.7 4.5-1.5 6.3-.8 1.7-2.1 10.4-3.1 19.2-.9 8.8-1.5 16.9-1.4 18 .1 1.1 .1 5.7 .1 10.3-.1 5.7 .4 9.3 1.6 12 .9 2 1.8 4 2 4.5 .2 .4-.6 .7-1.7 .7-1.1 0-3.1 1.4-4.5 3-1.4 1.7-3.2 3-4 3-.8 0-2.2 1-3 2.3-.8 1.2-1.2 3.3-.9 4.7 .2 1.4 .1 3-.3 3.5-.5 .6-1.9 1.8-3.3 2.7-1.4 1-4.3 3-6.5 4.6-2.2 1.6-7.4 4.5-11.5 6.5-4.1 2-8.2 4-9 4.5-.8 .5-4 2.1-7 3.5-3 1.5-7.4 3.1-9.7 3.7-2.4 .5-5 .8-5.8 .5-1.2-.4-1-1 1-3 1.4-1.4 2.5-2.9 2.5-3.5 0-.5 2.6-3.7 5.8-7 3.1-3.4 7-8.4 8.6-11.3 1.6-2.9 3.8-7 5-9.2 1.2-2.5 2.1-6.7 2.4-11 .3-4.5-.2-9.5-1.3-14-.9-3.8-2.3-8-3.1-9.2-.8-1.3-2.7-2.5-4.4-2.8-1.6-.3-3-1.1-3-1.7 0-.7 .3-1.7 .7-2.1 .4-.5 .9-1.6 1-2.5 .1-1 .5-3.9 .9-6.7l0.7-5-2.4-1.8c-1.3-.9-3.7-1.7-5.4-1.7-2-.1-4.1 1-6.5 3.2-1.9 1.9-4.4 5.5-5.5 8.1-1.1 2.6-2.3 4.7-2.7 4.7-.5 0-2.3-1-4-2.2-2.5-1.7-4.8-2.3-9.3-2.4-4.6 0-7.4 .6-12 2.7-3.3 1.6-7.6 4.1-9.5 5.7-2.3 1.9-4.3 4.9-5.7 8.8-1.3 3.2-2.3 6.8-2.3 7.9 0 1.1-.8 2.8-1.8 3.8l-1.7 1.8 1.2 7.7c0.9 5.6 1.9 8.3 3.5 10 1.3 1.2 3.1 2.2 4.1 2.2 1.5 0 1.6 .7 1.1 4.8-.4 2.7-.1 7.2 .7 10.7 1.1 4.5 2.4 7.1 5.9 11 2.5 2.7 5.6 5.9 7 7 1.4 1.1 5 3.3 8 4.9 4.3 2.3 7.2 3 13 3.4 5.5 .3 9.7-.2 15.5-1.6 4.4-1.2 9.4-2.8 11-3.6 1.7-.9 3.5-1.6 4-1.6 .6 0 2-.9 3.3-2 1.2-1.1 3.4-2.3 5-2.7 1.5-.3 5.4-2.3 8.7-4.4 3.3-2.1 6.6-3.9 7.3-3.9 .8 0 1.1 1.2 .8 3.8-.2 2-.6 4.2-.9 4.7-.3 .6-1.3 3.5-2.1 6.5-.8 3-1.4 8-1.5 11 0 3-.4 7.5-1 10-.5 2.5-1.3 11.9-1.6 21-.5 13.1-1.1 17.4-2.6 20.8-1 2.3-1.9 5.2-1.9 6.5 0 1.2-.6 3.1-1.3 4.2-.8 1.1-1.7 3.6-2.1 5.5-.4 1.9-2.4 7.1-4.5 11.5-2.1 4.4-5.5 11.4-7.4 15.5-2.1 4.6-5.2 9.2-8.1 12-2.9 2.9-4.6 5.4-4.6 7-.1 1.4 .5 3 1.2 3.6 .7 .6 2 1.3 2.8 1.7 .8 .3 3.5-.4 6-1.5 2.5-1.1 5.3-3 6.2-4.2 1-1.1 1.7-1.8 1.8-1.3 0 .4 1.5 0 3.3-1 1.7-.9 4.9-3 7-4.7 2.1-1.7 4.9-4.7 6.2-6.6 1.4-1.9 3.9-7.5 5.5-12.5 1.7-4.9 4-12.1 5.1-16 1-3.8 1.9-7.9 1.9-9 0-1.1 .7-4 1.6-6.5 .8-2.5 2.2-7 3-10 .9-3 1.9-5.9 2.4-6.5 .4-.5 1-2.8 1.3-5 .3-2.2 1.7-9.8 3.1-17 1.3-7.1 2.7-14.8 3-17 .2-2.2 .9-6.9 1.5-10.5 .6-3.6 1.6-8.7 2.2-11.5 .5-2.7 1.9-8.5 3-12.7 1-4.3 1.7-8.2 1.4-8.8-.3-.5-.2-1.7 .3-2.6 .4-.8 2.1-1.9 3.7-2.4 1.7-.5 6.8-1.2 11.5-1.5 4.7-.4 10.8-.9 13.5-1.2 2.8-.2 7.3-.5 10-.5 2.8-.1 6.7 0 8.8 .1 2.8 .1 3.9 .6 4.6 2.4 .6 1.4 .5 5-.4 10.2-.8 4.4-1.5 15.4-1.6 24.5-.1 9.1 .1 21.7 .5 28 .4 6.3 .9 12.9 1.1 14.5 .2 1.7 1.3 5 2.4 7.5 1.2 3 1.7 5.9 1.4 8.5-.4 3.2 .1 4.7 2.1 7.5 1.5 1.9 2.6 4 2.6 4.5 0 .6 1.1 2.1 2.6 3.5 1.4 1.4 3.8 5 5.4 8 1.5 3 3.5 6.2 4.4 7 .9 .8 1.7 2.1 1.6 2.8 0 .6-.7 2.2-1.5 3.5-1.4 2-1.4 2.6 0 6.2 .9 2.2 1.4 5.1 1.1 6.5-.3 1.4-1.1 5.7-1.9 9.5-.9 4.2-1.1 7.6-.6 8.5 .5 .8 .9 2.3 .9 3.3 0 .9 2.4 4.7 5.3 8.4 4.2 5.4 6.4 7.2 11.2 9.4 3.3 1.5 8.9 3.1 12.5 3.7 3.6 .6 10.1 .9 14.5 .7 4.5-.1 11.3-1.2 15.5-2.5 4.1-1.2 8.2-2.8 9-3.5 .8-.7 3.9-2.4 6.8-3.9 2.8-1.4 6.2-3.6 7.5-4.9 1.2-1.2 3.8-3.4 5.7-4.8 1.9-1.5 5.4-5.9 7.8-9.8 2.6-4.5 4.9-10.1 6.2-15.3 1.1-4.6 2.4-8.7 2.9-9.3 .5-.5 1.2-2.6 1.6-4.5 .3-1.9 1.5-6.2 2.6-9.5 1.1-3.3 2.4-7.3 2.9-9 .5-1.6 1-5.9 1-9.5 0-3.6-.6-8.7-1.4-11.5-.7-2.7-2.1-6.6-3.1-8.5-1.6-3.1-1.6-4.3-.6-9.7 .8-4.4 2.2-7.8 4.6-11 1.9-2.7 3.4-5.2 3.4-5.8 0-.5 .8-1.7 1.7-2.5 1-.8 3.3-4.9 5.2-9 2.8-6.3 3.4-8.7 3.5-15 .1-5.8-.4-8.3-1.9-10.9-1-1.9-3-4.2-4.4-5.3-1.4-1-4.3-2.3-6.5-2.7-2.2-.5-5.5-.5-7.5 0-1.9 .4-4.6 1.7-6 2.7-1.4 1.1-4 5-5.9 8.8-2.9 6.1-3.3 7.9-3.5 15.6 0 4.7-.5 9-.9 9.5-.5 .4-4.1 .7-8 .5-6.1-.3-8 .1-12.2 2.2-3 1.5-7.2 5-10.6 8.8-3 3.5-6.3 7.4-7.2 8.8-.9 1.4-2.1 4.8-2.6 7.5-.6 2.8-1.1 10.2-1.1 16.5-.1 6.3 .1 13.8 .5 16.5 .4 2.8 2.1 7.7 3.8 11 2.5 4.5 4.6 7 9.2 10.2 3.3 2.3 7.6 4.5 9.5 4.8 2.3 .4 5 0 8-1.2 2.9-1.2 6-3.7 9.2-7.5 2.6-3.2 4.8-6.2 4.8-6.8 0-.5 1.4-3 3-5.5 1.7-2.5 3-4.9 3-5.5 0-.5 .5-.8 1-.5 .6 .3 .8 2.8 .5 6.3-.4 3.1-1.3 8.4-2.1 11.7-.8 3.3-2.4 8.5-3.6 11.5-1.1 3-2.6 6.4-3.4 7.5-.8 1.1-6.1 6.9-11.7 12.8-6.7 7.1-11.7 11.5-14.7 12.9-2.5 1.2-5.3 2.8-6.4 3.7-1.4 1.3-4.1 1.6-13 1.5l-11.1 0-5.5-3c-3-1.6-6.9-4-8.6-5.4-1.8-1.4-3.8-3.8-4.7-5.5-.8-1.6-2-4.9-2.6-7.2-1-3.7-.8-4.8 .9-7.8 1.1-1.9 2.3-3.5 2.8-3.5 .4 0 2.3 .6 4.2 1.4 1.9 .8 5.5 1.7 8 2.1 3.9 .6 4.8 .4 6.6-1.7 1.2-1.3 2.4-3.3 2.8-4.5 .3-1.3-.3-5-1.4-8.3-1.1-3.3-2-6.7-2-7.5 0-.8-1.5-3-3.3-4.7-1.9-1.8-4.4-4-5.6-4.8-1.2-.8-4.2-4.6-6.6-8.5-2.3-3.8-5.9-11.7-7.9-17.5-1.9-5.8-4.4-14.8-5.5-20-1.1-5.2-2.3-14.9-2.7-21.5-.3-6.6-.7-16.9-.8-22.8 0-6 .1-11.3 .4-11.8 .3-.5 2.3 .5 4.5 2.3 2.2 1.8 6.5 5.6 9.5 8.4 3 2.8 7.5 6.2 10 7.5 3.5 1.8 6.2 2.3 12.1 2.3l7.7 .1 5-5c3.9-3.7 5.2-5.8 5.2-8 0-1.8-.8-3.8-2-5-1.1-1.1-2.1-2.6-2-3.2 0-.7-1.3-2.6-3-4.3-2.6-2.6-3.7-3-8.7-3-3.3 0-7.1 .6-8.8 1.5-1.6 .8-4.5 1.5-6.2 1.5-1.8 0-4.9-.8-7-1.7-2-1-4.5-2.8-5.5-4-1-1.3-2.7-2.3-3.8-2.3-1.1 0-3.3-.7-5-1.5-1.6-.8-3.5-2.7-4.1-4.2-.7-1.7-1.3-12.1-1.5-25.3-.2-12.4-.6-25.4-.9-29-.3-3.6-.7-8.1-.9-10-.3-1.9-.7-6-1.1-9-.3-3-1.5-8.2-2.5-11.5-1-3.3-3.5-9.6-5.6-14-2.1-4.4-6-11.3-8.8-15.3-2.8-4-5.4-7.3-5.8-7.2-.5 0-2.5-1.5-4.5-3.2l-3.6-3.3-6.4 0-6.5 0 .6-2.5c0.2-1.4 .8-3.8 1.1-5.5 .5-2.1 .3-3.2-.6-3.7-.8-.4-1.8-.8-2.4-.8ZM208.3 40.7c1.5 1.5 3 3.7 3.4 4.8 .3 1.1 1.3 2.7 2.2 3.6 .9 .9 2.8 4.8 4.3 8.5 1.5 3.8 3.4 9.4 4.3 12.4 .9 3 2.5 10.7 3.5 17 1 6.3 1.9 16.2 1.9 22 .1 5.8 .2 11.2 .3 12 .1 .8 .1 7.1 0 14-.1 10.4-.4 12.9-1.9 14.7l-1.8 2.3-12.5 .1c-6.9 .1-15.1 .1-18.2 0-4.4-.1-5.8-.5-5.8-1.6 0-.8 1.2-2.9 2.8-4.6 1.8-2.1 3.1-5.1 3.9-9.2 .6-3.4 1.2-8.6 1.2-11.4 .1-2.9-.5-6.5-1.3-8-.7-1.6-2.7-4-4.5-5.5-2.5-2.3-4.1-2.8-8.1-2.8-3 0-5.2-.5-5.6-1.2-.4-.7 .6-4.7 2.1-8.8 1.6-4.1 3.4-8.4 4.1-9.5 .7-1.1 3.3-6.9 5.7-13 2.4-6 6-14.4 8-18.5 1.9-4.1 3.9-9.3 4.3-11.5 .5-2.2 1.7-5 2.9-6.3l2-2.3 2.8 2.8ZM208 81.1c-.3 0-1.5 .5-2.7 1.2-1.3 .7-3.4 3.3-4.8 6-1.4 2.6-2.5 5.3-2.5 6-.1 .6 .7 2 1.7 2.9 1 1 2.4 1.8 3.1 1.8 .6 0 1.7-1.3 2.2-3 .7-2 1.7-3 3-3 1.1 0 2.5-.9 3-2 .6-1.1 .7-3.5 .3-5.2-.3-1.8-1.1-3.6-1.7-4-.6-.4-1.3-.8-1.6-.7ZM170.7 85.3l0.8 .7-.8 .8c-.4 .4-.8 0-.8-.8 0-.8 .4-1.2 .8-.7ZM169.5 93c0.8 0 1.8 .6 2.1 1.3 .3 .6 .1 2.2-.5 3.5-.6 1.2-1.5 2.2-2.1 2.2-.5 0-1.1-.8-1.3-1.7l-.3-1.8 .3-1.7c0.2-1 1-1.8 1.8-1.8ZM219.1 93.8c-1.6-.6-2.7-.1-4.6 2-1.4 1.5-2.6 3.4-2.6 4.2 .1 .8 .6 2.3 1.3 3.2 .7 .9 2 1.8 2.8 1.9 .8 .1 2.7-.1 4.3-.4 1.6-.4 2.9-1.6 3.3-2.9 .3-1.3 0-3.4-.9-4.8-.8-1.4-2.5-2.8-3.6-3.2ZM182.3 121c0.6 0 1.5 1.4 2 3.2 .4 1.8 .7 4.4 .7 5.8 0 1.7-1.6 4-5 7.3-2.7 2.6-6.1 4.9-7.5 5.2-1.4 .3-3.2-.1-4-.7-.9-.7-1.6-2.3-1.5-3.5 0-1.3 .9-2.7 2-3.3 1.4-.7 1.9-1.8 1.8-3.6-.2-1.8 .4-3 1.7-3.8 1.1-.6 3.5-2.3 5.2-3.8 1.8-1.6 3.9-2.8 4.6-2.8ZM71.5 124c0-.1 .7 .7 1.5 1.6 .9 1 1 1.5 .3 1.1-.7-.4-2.2-.2-3.3 .3-1.1 .6-2 .7-2 .3 .1-.5 .8-1.3 1.8-2 .9-.7 1.7-1.3 1.7-1.3ZM77 123.9c0.8 0 1.2 .4 .8 .8l-.8 .8-.7-.8c-.5-.4-.1-.8 .7-.8ZM82.5 125c0.8 0 2.2 .7 3 1.5 .8 .8 1.5 1.8 1.5 2.3 .1 .4-.6 1.4-1.5 2.2-.9 .8-1.6 1.1-1.6 .5 .1-.5 .6-1.6 1.3-2.2 1-1 .7-1.5-1.4-2.3-1.6-.5-2.8-1.2-2.8-1.5 0-.3 .7-.5 1.5-.5ZM66 126c0.6 0 .8 .5 .5 1-.3 .6-.9 1-1.5 1-.5 0-.8-.4-.5-1 .3-.5 1-1 1.5-1ZM76.3 127.1c0.4-.1 .9 .5 1.1 1.2 .2 .7-.7 1.3-2 1.5-1.3 .1-2.4-.2-2.4-.8 0-.5 .6-1.2 1.3-1.4 .6-.3 1.5-.5 2-.5ZM76 132.8c1.1 .9 2 2 2 2.5 0 .4-.9 .7-2 .7-1.3 0-1.8-.5-1.5-1.5 .3-.8 .1-1.5-.5-1.5-.5 0-.8-.4-.5-1 .3-.6 1.3-.3 2.5 .8ZM65.7 133.3l0.8 .7-.8 .8c-.4 .4-.8 0-.8-.8 0-.8 .4-1.2 .8-.7ZM86.4 133.3c1.1 .1 2.1 .9 2.3 1.7 .3 1 .2 1.1-.4 .4-.4-.6-1.5-1.4-2.3-1.7-1.1-.5-.9-.6 .4-.4ZM80.8 136c0.1 0-.2 1.4-.8 3-.9 2.7-1.2 2.8-2.5 1.5-.8-.8-1.7-1.5-2-1.5l-.5 0 .5 1.5c0.3 .8 .1 1.5-.5 1.5-.5 0-1.2-.7-1.5-1.5-.3-.8 .2-1.7 1-2l1.5-.5 1 .5c0.6 .3 1.6-.2 2.3-1 .6-.9 1.3-1.6 1.5-1.5ZM97 136.9c0.8 0 1.2 .4 .8 .8l-.8 .8-.7-.8c-.5-.4-.1-.8 .7-.8ZM57 139c0.3 0 1 .5 1.7 1.2l1.2 1.3-1.2 1.1c-.7 .5-2 1.3-2.9 1.7-1 .4-1.8 .5-1.8 .2 0-.3 .6-1.6 1.3-3 .6-1.4 1.4-2.6 1.7-2.5ZM71 140c0.6 0 1 .7 1 1.5 0 .9-.6 1.3-1.5 1-.8-.3-1.3-.9-1-1.5 .3-.5 1-1 1.5-1ZM84 142.6l0.5 .4-.5 .4c-.3 .2-1.8 .6-3.5 .9l-3 .6 3-1.3c1.7-.8 3.2-1.2 3.5-1ZM108.6 143.3c1.8-.2 2.4 .2 2.4 1.7 0 1.1-.3 2.2-.7 2.4-.5 .3-1.3 .2-1.9-.2-.6-.4-1.3-1.4-1.6-2.2-.4-1 .2-1.6 1.8-1.7ZM72.5 144c0.8 0 1.7 .5 2 1 .3 .6-.2 1-1 1-.8 0-1.7-.4-2-1-.3-.5 .2-1 1-1ZM90.3 144c0.9 0 1.5 .5 1.2 1-.3 .6 .2 1 1 1 .8 0 1.7 .3 1.9 .8 .2 .4-.8 .8-2.2 .9-1.5 .1-2.4-.1-2-.5 .5-.4 .2-1.3-.5-2-1-1-.9-1.3 .6-1.2ZM62.5 146.5c0.8 .3 1.3 1 1 1.5-.3 .6-.9 1-1.5 1-.5 0-1-.7-1-1.5 0-.9 .6-1.3 1.5-1ZM96.8 146c0.6 0 1.4 .5 1.7 1 .3 .6 .4 1.2 .3 1.5-.2 .3-1-.2-1.8-1-1.1-1.1-1.1-1.6-.2-1.5ZM72.5 147.5c2.4 0 3.5 .4 3.5 1.5l0 1.5-.9-1.5c-.6-1.1-1-1.2-1.5-.2-.3 .6-1.3 1-2.1 .7-.8-.3-2.2 .1-3 .8-.9 .6-1.6 .8-1.6 .2 .1-.5 .5-1.4 1-2 .6-.5 2.6-1 4.6-1ZM83.5 147.1c1.1-.1 1.8 .1 1.5 .4-.3 .4-1.2 .4-2 .2-1-.4-.9-.6 .5-.6ZM79 149.5c0.3 .3-.1 1.1-.8 1.8-.7 .6-1.2 .8-1.2 .2-.1-.5 .3-1.3 .7-1.7 .5-.5 1-.6 1.3-.3ZM101.8 149.9c1.2 .6 2.2 2 2.2 3.1 0 1.1-.4 2-1 2-.5 0-.8-.4-.5-1 .3-.5-.3-2-1.2-3.1l-1.8-2.2 2.3 1.2ZM94 150c0.6 0 1 .5 1 1 0 .6-.4 1.2-1 1.5-.5 .3-1-.2-1-1 0-.8 .5-1.5 1-1.5ZM54.5 151c0.3 0 .5 .7 .5 1.5 0 .8-.4 1.3-1 1-.5-.3-.8-.9-.5-1.5 .3-.5 .7-1 1-1ZM83.5 151c0.3 0 .5 .9 .5 2 0 1.1-.4 2-1 2-.5 0-.8-.9-.5-2 .3-1.1 .7-2 1-2ZM89 151c1.1 0 1 .4-.5 1.5-1.1 .9-2.4 1.5-3 1.6-.5 0-.3-.7 .5-1.6 .8-.9 2.2-1.6 3-1.5ZM65 151.9c0.8 0 1.2 .4 .8 .8l-.8 .8-.7-.8c-.5-.4-.1-.8 .7-.8ZM100 151.9c0.8 0 1.2 .4 .8 .8l-.8 .8-.7-.8c-.5-.4-.1-.8 .7-.8ZM165 152c1.8 0 3.3 .7 3.8 1.6 .4 1 .1 1.9-.8 2.5-.8 .5-1.8 .9-2.2 .9-.5 0-1.5-1.1-2.3-2.5l-1.5-2.5 3 0ZM526.5 153.1c-1.1 .1-4.9 .7-8.5 1.5-3.6 .8-8.5 2.4-11 3.7-2.5 1.2-7.8 5-11.7 8.4-4 3.5-8.2 6.3-9.3 6.3-1.4 0-2.2-.9-2.7-2.7-.3-1.6-2.1-4.6-3.8-6.8-2-2.4-5.3-4.9-8.6-6.4-3-1.3-7.1-2.4-9.1-2.5-2.8-.1-4.4 .6-6.8 2.9-1.7 1.7-3 3.5-3 4 0 .6-1.3 2.8-3 5-2.5 3.3-3.1 4.9-3 9 0 3.2 .7 6.2 2 8.3 1.1 1.7 3.7 4 5.8 4.9 2.8 1.3 6.4 1.8 14.4 1.8l10.8 0 0 2c0 1.1-.4 4.7-1 8-.5 3.3-1.1 12.8-1.4 21-.3 8.3-1.2 18.8-2.1 23.5-.9 4.7-1.8 10.1-2.1 12-.2 1.9-.6 7.6-.9 12.5-.3 5-.8 10.6-1.1 12.5-.3 1.9-1 9.8-1.5 17.5-.5 7.7-.7 14.6-.4 15.3 .3 .6 2 1.2 3.8 1.2 2.2 0 4.1-.8 6-2.7l2.7-2.8-.5-6.2c-.3-3.5-.2-6.5 .3-6.7 .4-.2 .6-4.2 .5-8.8-.1-4.5 .3-13.7 .8-20.3 .6-6.6 1.4-13.6 1.9-15.5 .5-1.9 1.4-6.6 2-10.5 .6-3.8 1.3-8.1 1.5-9.5 .2-1.4 1.1-7.7 1.9-14 .8-6.3 1.8-16.6 2.3-22.8l0.8-11.2 3.5-1.1c1.9-.7 6.4-1.1 10-1 3.6 0 10.1 .6 14.5 1.2 4.4 .6 10.3 1.9 13 2.9 2.8 1.1 8.2 4.3 12 7.1 4 3 9.5 6 12.8 7.1 3.4 1.1 7 1.6 9 1.2 1.7-.3 5.6-1.6 8.5-3 4.1-1.9 5.6-3.3 7.2-6.6 1.1-2.4 2-5.4 2-6.8 0-1.4-.8-4.5-1.7-7-.9-2.5-3.5-6.4-5.7-8.8-2.3-2.3-7.2-5.8-11.1-7.8-3.8-2-9.2-4.3-12-5.1-2.7-.7-9.7-2-15.5-2.8-5.8-.8-11.4-1.4-12.5-1.4ZM95.8 154c0.1 0 .4 .5 .7 1 .3 .6-.5 1-1.7 1-1.9 0-2-.2-.8-1 .8-.5 1.6-1 1.8-1ZM53.7 156.3l0.8 .7-.8 .8c-.4 .4-.8 0-.8-.8 0-.8 .4-1.2 .8-.7ZM71.7 156.3l0.8 .7-.8 .8c-.4 .4-.8 0-.8-.8 0-.8 .4-1.2 .8-.7ZM82.7 156.3l0.8 .7-.8 .8c-.4 .4-.8 0-.8-.8 0-.8 .4-1.2 .8-.7ZM107 155.9c0.8 0 1.2 .4 .8 .8l-.8 .8-.7-.8c-.5-.4-.1-.8 .7-.8ZM58.3 157.3c1.2 .1 2.2 .9 2.2 1.7 0 .8-.9 1.5-2 1.5-1.1 0-2.1-.8-2.2-1.7-.2-1.3 .3-1.7 2-1.5ZM75 157c0.6 0 .8 .6 .7 1.3-.2 .6-.9 1.3-1.5 1.5-.7 .1-1-.5-.7-1.3 .3-.8 1-1.5 1.5-1.5ZM89.5 157c0.8 0 1.5 .5 1.5 1 0 .6-.4 1.2-1 1.5-.5 .3-1.2-.2-1.5-1-.3-.9 .1-1.5 1-1.5ZM92.5 157c0.3 0 .7 .5 1 1 .3 .6 .1 1-.5 1-.5 0-1-.4-1-1 0-.5 .2-1 .5-1ZM66.7 158.3l0.8 .7-.8 .8c-.4 .4-.8 0-.8-.8 0-.8 .4-1.2 .8-.7ZM53.5 160c0.3 0 1.2 .7 2 1.5 1.3 1.3 1.3 1.5-.5 1.5-1.1 0-2-.7-2-1.5 0-.8 .2-1.5 .5-1.5ZM62.5 160c0.3 0 .7 .5 1 1 .3 .6 .1 1-.5 1-.5 0-1-.4-1-1 0-.5 .2-1 .5-1ZM81.5 160.7c0.6 .3 .2 1-.7 1.4-1.2 .6-1.6 1.6-1.3 2.9 .3 1.1 .1 2-.5 2-.5 0-1.2-.7-1.5-1.5-.3-.8 .3-2.4 1.3-3.5 .9-1 2.2-1.6 2.7-1.3ZM105 159.9c0.8 0 1.2 .4 .8 .8l-.8 .8-.7-.8c-.5-.4-.1-.8 .7-.8ZM89 162.9c0.8 0 1.2 .4 .8 .8l-.8 .8-.7-.8c-.5-.4-.1-.8 .7-.8ZM95 164.3c1 .6 1.7 1.4 1.5 1.7-.3 .3 .1 1.1 .8 1.8 .6 .7 .9 1.3 .5 1.2-.5 0-1.7-1-2.8-2.2-1.1-1.3-2-2.6-2-3 0-.5 .9-.2 2 .5ZM71 164c0.6 0 .8 .7 .5 1.5-.3 .8-.9 1.3-1.5 1-.5-.3-.8-.9-.5-1.5 .3-.5 1-1 1.5-1ZM523.8 164.1c0.6 0 1.2 .5 1.3 1.2l0.1 1.2 .4-1.2c0.3-.9 2.4-1.3 6.2-1.3 3.1 0 8.5 .5 12 1 3.4 .6 6.2 1.3 6.2 1.8 0 .4 1.4 .8 3 1 1.7 .1 5.8 1.8 9.3 3.8 3.5 2 7.2 5 8.5 7 1.2 1.9 2.2 4.9 2.2 6.7-.1 2.3-.8 3.7-2.8 5.1-2 1.4-3.6 1.7-6.4 1.2-2.1-.3-5.3-1.4-7-2.4-1.8-1-5.8-3.5-8.8-5.5-3-2-8.9-4.7-13-6.1-4.1-1.4-10.9-2.8-15-3.1-5.3-.5-7.9-1.2-8.8-2.3l-1.2-1.7 0 1.8c0 1.2-.8 1.7-2.5 1.7-1.4 0-2.5-.4-2.5-1 0-.5 1-1.4 2.3-1.9 1.2-.6 1.8-1 1.2-1-.5 0 .3-1.1 2-2.3 1.6-1.3 5-2.6 7.5-2.9 2.5-.4 5.1-.7 5.8-.8ZM76 166c0.5 .8 1 1.8 1 2.3 0 .4-.4 .5-1 .2-.5-.3-1-1.3-1-2.2 0-1.5 .2-1.6 1-.3ZM91 165c0.6 0 1 .5 1 1 0 .6-.2 1-.5 1-.3 0-.7-.4-1-1-.3-.5 0-1 .5-1ZM523 165c-.5 0-.8 .5-.5 1 .3 .6 .7 1 1 1 .3 0 .5-.4 .5-1 0-.5-.4-1-1-1ZM535 164.9c-.8 0-1.2 .4-.7 .8l0.7 .8 .8-.8c0.4-.4 0-.8-.8-.8ZM57.8 166c0.4-.1 1.4 .7 2.2 1.6l1.5 1.7-1.9-.4c-1.1-.2-2.1-1-2.3-1.6-.2-.7 0-1.3 .5-1.3ZM68 168.3c1.1 1.2 2 2.3 2 2.5 0 .1-.6 .1-1.2-.1-.7-.1-1.9-.6-2.5-1-.7-.4-1.1-1.4-.8-2.2 .4-1.2 .9-1.1 2.5 .8ZM102 165.9c0.8 0 1.2 .4 .8 .8l-.8 .8-.7-.8c-.5-.4-.1-.8 .7-.8ZM464 166.1c1.4-.1 3.9 1.1 5.7 2.6 1.7 1.6 3.6 4.2 4.2 5.8 .7 1.7 .8 3.3 .4 3.7-.5 .5-2.4 1.1-4.3 1.4-1.9 .3-4.8 .6-6.5 .6-2 0-3.8-.9-5.2-2.6-1.3-1.5-2.3-3.9-2.3-5.6 0-2.2 .4-2.9 1.5-2.5 .9 .3 1.5-.1 1.5-1 0-.8 .6-1.7 1.3-1.9 .6-.3 2.3-.5 3.7-.5ZM63.7 167.3l0.8 .7-.8 .8c-.4 .4-.8 0-.8-.8 0-.8 .4-1.2 .8-.7ZM519.5 167l-.5 0 .5 1c0.3 .6 .7 1 1 1l0.5 0-.5-1c-.3-.5-.7-1-1-1ZM74.7 169.3l0.8 .7-.8 .8c-.4 .4-.8 0-.8-.8 0-.8 .4-1.2 .8-.7ZM97.3 170.3c0.9 .7 1.7 1.9 1.7 2.7 0 1.3-.2 1.3-1.7-.1l-1.8-1.7-3.8 1.7c-2.3 1-3.7 2.3-3.7 3.4 0 .9 .5 1.7 1 1.7 .6 0 1-.4 1-1 0-.5 .8-1 1.8-1 1.2 .1 .8 .9-1.8 3.1-2.3 1.9-4.5 2.9-6.5 2.8-2.6 0-2.7-.2-1-.9 1.8-.8 1.7-.9-.7-.9-1.6-.1-3-.5-3.3-1.1-.3-.6 1.2-.8 4-.5 2.7 .3 4.5 .1 4.5-.5 0-.5-.4-1-1-1-.5 0-1-.9-1-2 0-1.3 .5-1.8 1.5-1.5 .8 .3 2.1-.2 2.8-1 .6-.9 1.4-1.3 1.7-1.1 .3 .3 1.4-.1 2.5-.9 1.6-1.1 2.4-1.1 3.8-.2ZM526.5 169c-.3 0-.5 .5-.5 1 0 .6 .5 1 1 1 .6 0 .8-.4 .5-1-.3-.5-.7-1-1-1ZM83 169.9c0.8 0 1.2 .4 .8 .8l-.8 .8-.7-.8c-.5-.4-.1-.8 .7-.8ZM523.7 171.3c-.4-.5-.8-.1-.8 .7 0 .8 .4 1.2 .8 .8l0.8-.8-.8-.7ZM534 173c-.5 0-1 .5-1 1 0 .6 .5 .8 1 .5 .6-.3 1-.7 1-1 0-.3-.4-.5-1-.5ZM459.5 174.1c-.5 .1-.2 .3 .8 .5 .9 .2 1.7 .9 1.7 1.4 0 .6 .7 1 1.5 1 .8 0 1.5-.4 1.5-1 0-.5-1-1.2-2.2-1.5-1.3-.3-2.7-.4-3.3-.4ZM74 174.9c0.8 0 1.2 .4 .8 .8l-.8 .8-.7-.8c-.5-.4-.1-.8 .7-.8ZM473 176c-.5 0-1 .5-1 1 0 .6 .5 1 1 1 .6 0 1-.4 1-1 0-.5-.4-1-1-1ZM68.5 177.1c0.6 0 .1 .6-1 1.4-1.1 .8-2.4 1.1-3 .8-.6-.4-.1-1 1-1.4 1.1-.4 2.5-.8 3-.8ZM559.7 177.3c-.4-.5-.8-.1-.8 .7 0 .8 .4 1.2 .8 .8l0.8-.8-.8-.7ZM73 180.4c1.4 .4 3.2 .8 4.2 .9 .9 .1 2 .6 2.5 1.1 .4 .5-.9 .6-3.2 .3-2.2-.4-4.8-.7-5.7-.7-1.1 0-1.5-.4-1-1.1 .4-.7 1.7-.9 3.2-.5ZM399.8 182.4c-3.6-.5-4.6-.2-6.3 1.6-1.4 1.6-1.9 3.4-1.8 6.4 .1 2.2 .6 4.3 1.1 4.6 .5 .3 1.4 2.1 2 4 .6 1.9 1.7 4.1 2.4 4.8 .7 .6 3.3 1.5 5.8 1.8l4.5 .6 3.8-4.3 3.8-4.4-.6-4c-.3-2.2-1.4-4.7-2.3-5.6-.9-.8-3.2-2.3-4.9-3.2-1.8-.9-5.2-2-7.5-2.3ZM552 181.9c-.8 0-1.2 .4-.7 .8l0.7 .8 .8-.8c0.4-.4 0-.8-.8-.8ZM567 182c-.5 0-.8 .5-.5 1 .3 .6 1 1 1.5 1 .6 0 .8-.4 .5-1-.3-.5-.9-1-1.5-1ZM356 184c1.1 0 2.2 .5 2.5 1 .3 .6-.1 3.6-.9 6.8-.8 3.1-3.5 9.4-6 14-2.5 4.5-5 8.2-5.6 8.2-.5 0-1.2-1.2-1.4-2.7-.2-1.6-.3-4.8-.1-7.3 .1-2.5 .8-6.5 1.5-9 .7-2.6 2.6-5.8 4.6-7.7 1.9-1.8 4.3-3.3 5.4-3.3ZM561.7 185.3c-.4-.5-.8-.1-.8 .7 0 .8 .4 1.2 .8 .8l0.8-.8-.8-.7ZM569.5 187c-.3 0-.5 .7-.5 1.5 0 .8 .5 1.3 1 1 .6-.3 .8-.9 .5-1.5-.3-.5-.7-1-1-1ZM151 194c0.6 0 .7 1.1 .3 2.8-.3 1.5-.9 3.8-1.2 5.1-.3 1.3-1.2 2.6-1.8 2.8-.7 .1-1.3-.6-1.3-1.7 0-1.1 .5-2.2 1-2.5 .6-.3 1.2-1.8 1.5-3.5 .3-1.6 1-3 1.5-3ZM175 205c-.5 0-1.2 .5-1.5 1-.3 .6-.2 1.2 .3 1.5 .4 .2 1.1 .1 1.5-.3 .4-.4 .7-1 .7-1.4 0-.5-.4-.8-1-.8ZM147.8 213c0.1 1.4 0 2.7-.3 3l-.5 .5-.5-.5c-.2-.3-.1-1.6 .3-3l0.7-2.5 .3 2.5ZM325 218.8c1.4 .2 3.7 1.1 5.3 1.8 1.5 .8 3.6 3.3 4.8 5.7l2.1 4.2-1.6 4c-1.1 2.9-1.5 6.8-1.3 14 .1 7.6-.3 11.7-1.8 16.9-1.2 4.1-3.1 8.1-4.9 10l-2.8 3.1-5.2-.5c-2.8-.3-7.3-1.7-10.1-3-2.7-1.4-5.6-3.6-6.3-5-1-1.9-1.2-6-.8-16l0.5-13.5 3.3-6.5c1.8-3.6 4.6-7.6 6.2-9 1.6-1.4 4.5-3.5 6.5-4.6 2.2-1.3 4.6-2 6.1-1.6ZM390 238.8c-1.4-.3-3.3-.4-4.2-.2-1 .2-1.8 1.2-1.8 2.2 0 .9 .6 7.3 1.4 14.2 .8 6.9 1.7 16.3 2.1 21 .3 4.7 .8 11 1.1 14 .4 4 0 6.8-1.3 10.2l-1.8 4.7 2 2.1c1.2 1.3 3.2 2.1 5.3 2 2.2 0 3.6-.7 4.6-2.2 .7-1.3 1.4-5 1.4-8.3 .1-3.3-.3-7.6-.8-9.5-.5-1.9-1.6-10.7-2.3-19.5-.8-8.8-1.2-18.5-1-21.5 .3-3.6 0-6.1-.9-7.1-.7-.9-2.4-1.9-3.8-2.1Z" style="fill:rgb(0,0,0);"/>
</g>
<g id="b" style="mix-blend-mode:screen;">
<path d="M197.7 13.4c-.7-.1-2.4 .4-3.9 1.2-1.6 .8-2.8 2-2.8 2.7 0 .6-1.2 2.1-2.6 3.2-1.4 1.1-3.9 4-5.5 6.5-1.6 2.5-2.9 5.1-2.9 5.8 0 .6-1.1 2.9-2.4 5-1.4 2-3 5.7-3.6 8.2-.7 2.5-1.6 5-2.1 5.5-.4 .6-1.8 4.4-2.9 8.5-1.1 4.1-2.9 9.8-4 12.5-1 2.8-2.2 6.7-2.5 8.8-.3 2-.9 4.5-1.4 5.5-.5 .9-1.4 7.8-2.1 15.2-.6 7.4-1.6 15.1-2.2 17-.7 2.5-.7 4.5 .2 7 .8 2.4 .9 5.1 .3 8.5-.6 3.4-.4 6.7 .4 10.3l1.3 5.2-3.2 3.1c-1.8 1.7-4.3 3.5-5.5 4-1.3 .5-2.7 2-3.3 3.4-.5 1.4-.7 3.5-.4 4.8 .4 1.7-.3 2.9-3.3 5.3-2.1 1.8-5.1 3.8-6.6 4.5-1.5 .8-2.7 1.7-2.7 2.2 0 .4-2.5 1.6-5.5 2.7-3 1.1-7.2 3.1-9.2 4.5-2.1 1.4-4.4 2.5-5 2.5-.7 0-3.4 1.2-6 2.7-2.7 1.5-6.4 2.9-8.3 3.1-3.1 .4-3.4 .3-2.6-1.4 .4-1 1.1-2.7 1.5-3.7 .3-1 1.4-2 2.4-2.2 .9-.3 1.7-.9 1.7-1.5 0-.5 1.8-2.8 4-5 2.2-2.2 4-4.4 4-5 0-.5 .6-1.6 1.3-2.2 .7-.7 3-4.9 5.2-9.3 3.5-7.2 3.9-8.7 3.7-14.7-.1-3.8-.6-8.8-1.2-11.3-.5-2.5-1.9-6.5-3-9-1.7-3.9-2.4-4.5-5-4.5-1.6 0-3-.3-3-.7 0-.5 .4-1.2 .9-1.8 .5-.5 1.2-4.4 1.6-8.5l0.7-7.5-2.6-1.7c-1.4-1-4.1-1.8-5.8-1.8-2.3 0-4.4 .9-7 3.2-2.1 1.8-4.9 5.4-6.3 8.1l-2.5 4.7-2.7-2.2c-2.2-1.8-4.1-2.3-9.3-2.3-4.8-.1-8.1 .6-12.7 2.5-3.4 1.4-7.5 3.6-9.1 5-1.5 1.4-3.6 3.6-4.5 5-1 1.4-1.9 3.2-2.1 4-.1 .8-.8 2.9-1.5 4.5-.7 1.7-1.3 3.9-1.4 5-.1 1.1-.7 2.6-1.4 3.3-.9 .8-1.2 3.1-.9 7 .3 3.1 .8 7.1 1.2 8.7 .3 1.7 1.4 3.8 2.3 4.8 .9 .9 2.6 1.9 3.9 2.2l2.2 .5-1 3.3c-.7 2.3-.5 5.1 .8 10.6l1.7 7.4 6.5 6.9c4.2 4.5 8.6 7.9 12.5 9.9 3.3 1.6 8.5 3.3 11.5 3.7 3 .4 8 .4 11 0 3-.4 9.1-1.9 13.5-3.4 4.4-1.5 11.8-4.7 16.5-7.1 4.7-2.4 9.1-4.8 9.8-5.3 .6-.6 1.5-1 2-1 .4 0 1.5-.8 2.5-1.8 .9-.9 2-1.4 2.5-.9 .4 .4 .1 2.6-.6 5-.7 2.3-1.8 5.8-2.4 7.7-.6 1.9-1.2 5.8-1.4 8.5-.2 2.8-.5 7-.8 9.5-.4 2.5-.9 5.4-1.2 6.5-.3 1.1-.8 7.4-1 14-.2 6.6-.5 14.5-.8 17.5-.3 3-1.2 6.9-2 8.5-.9 1.7-1.6 3.9-1.6 5 0 1.1-.7 3.4-1.5 5-.9 1.7-1.5 3.7-1.5 4.5 0 .8-.3 1.9-.7 2.3-.4 .5-.8 1.2-.8 1.5 0 .4-.6 2.3-1.4 4.2-.7 1.9-2.1 4.9-3 6.7-.9 1.7-2 2.9-2.6 2.5-.6-.4-.7-.2-.2 .6 .4 .6 .3 2-.2 3-.5 .9-2.2 4.4-3.6 7.7-1.5 3.3-4.9 8.3-7.6 11-3.5 3.6-4.9 5.8-4.9 8-.1 2.4 .6 3.4 3.4 5l3.4 2 2.6-1.7c1.4-1 3.3-1.8 4.1-1.8 .8 0 2.2-1.1 3-2.5 .8-1.4 1.8-2.3 2.3-2 .4 .2 2.1-.3 3.7-1.2 1.7-.9 4.6-2.8 6.5-4.3 1.9-1.5 5.2-4.9 7.2-7.6 2.1-2.7 3.9-6 4.1-7.4 .2-1.4 .6-2.9 .9-3.5 .4-.5 1.6-4.1 2.8-8 1.2-3.8 2.5-7.7 3-8.5 .4-.8 1.1-3.7 1.4-6.5 .4-2.7 1.8-8.8 3.2-13.5 1.4-4.7 3-9.6 3.6-11 .5-1.4 1.2-4.3 1.5-6.5 .3-2.2 .8-4.7 1.3-5.5 .5-.8 1.3-4.2 2-7.5 .6-3.3 1.1-6.7 1.1-7.5 .1-.8 .7-4.4 1.5-8 .7-3.6 1.8-10.5 2.4-15.5 .6-4.9 1.8-11.2 2.6-14 .8-2.7 1.4-5.4 1.3-6-.2-.5 .5-3.7 1.5-7 1-3.3 1.5-6.8 1.2-7.7-.3-1 0-2.3 .7-2.8 .6-.6 6.8-1.6 13.7-2.4 6.9-.7 17.6-1.4 23.8-1.5l11.2-.1 1 2c0.7 1.4 .6 4.9-.5 11.3-.7 5-1.5 16.9-1.6 26.2-.2 9.4 0 19 .4 21.5 .4 2.5 .8 8.1 1 12.5 .2 4.6 1.1 9.6 2 11.8 .9 2 1.6 5.8 1.6 8.5-.1 3.8 .5 5.8 3.5 10.5 2 3.1 4.5 6.6 5.6 7.7 1.1 1.1 3 3.9 4.1 6.3 1.2 2.3 3 5.1 4.1 6.2 1.5 1.5 1.7 2.6 1.1 4.5-.4 1.4-.8 6.3-.9 11 0 4.7-.4 11.7-.8 15.5-.7 6-.6 7.7 1.1 11.5 1.1 2.5 4.3 7.1 7.1 10.3 2.9 3.1 5.7 5.7 6.2 5.7 .6 0 2.9 .9 5.3 2 2.3 1.1 6.9 2.4 10.2 2.8 3.3 .4 10.1 .6 15 .5 6-.1 11.3-.9 16-2.4 3.9-1.2 7.6-2.6 8.3-3.1 .6-.4 1.8-.5 2.5-.1 .8 .5 .9 .4 .5-.5-.5-.8 .2-1.6 2-2.4 1.5-.7 4.1-2.2 5.7-3.3 1.7-1.1 5.6-4 8.7-6.5 3.1-2.5 5.9-5.3 6.2-6.2 .4-1 1.1-1.6 1.6-1.3 .6 .3 .9 .2 .8-.2 0-.5 1.1-3.5 2.6-6.8 1.6-3.3 4.1-10.3 5.8-15.5 1.6-5.2 3.8-12.6 4.8-16.5 1-3.8 2.5-9 3.4-11.5 1-2.7 1.6-7.6 1.6-12.5 0-6.5-.6-9.4-3-15.5-2.4-6-2.9-8.4-2.5-12 .4-2.6 2-6.6 3.9-9.5 1.8-2.7 3.5-6 3.9-7.2 .4-1.3 1.2-2.3 1.7-2.3 .6 0 2-1.9 3.3-4.2 1.2-2.4 3-6.3 3.9-8.8 .9-2.5 1.9-6.5 2.2-9 .4-2.5 .1-7-.5-10-.8-3.8-2.1-6.5-4.3-8.6-1.7-1.7-4.9-3.6-7.1-4.3-2.2-.6-5.8-.8-8-.5-2.2 .4-5.6 1.7-7.5 2.9-2.5 1.7-4.5 4.5-7 9.7-3 6.5-3.4 8.2-3.5 16.3l-.1 9-3-.2c-1.6-.1-4.5-.3-6.4-.4-1.9-.1-6 .8-9 1.9-3 1.2-6.8 3.4-8.5 5-1.6 1.5-4.8 4.8-6.9 7.3-2.1 2.4-4.7 6.2-5.7 8.4-1 2.2-2.2 7.2-2.6 11-.5 3.9-.7 12.1-.6 18.3 .3 9.4 .7 12.2 2.9 17.5 1.5 3.4 3.4 7.2 4.3 8.3 .9 1.2 4.3 4 7.6 6.3 5.1 3.4 6.9 4.1 11.5 4.3 4.4 .1 6.3-.4 9.8-2.5 2.3-1.5 5.1-4.2 6.1-5.9 1.1-1.8 2.4-3.7 2.9-4.3 .5-.5 2.1-3.4 3.5-6.2 1.5-2.9 3-5.3 3.5-5.3 .4 0 .6 1.7 .5 3.8-.1 2-1.3 7.5-2.6 12.2-1.4 4.7-3.2 10.3-4 12.5-.9 2.2-3.7 6.4-6.4 9.4-2.6 3-7.6 8.3-11 11.8-3.7 3.7-8.8 7.5-12.3 9.3-3.3 1.7-6.2 3.3-6.4 3.8-.2 .4-3 .8-6.3 1-3.2 .2-6.1 .5-6.5 .8-.5 .2-1.8-.1-3-.8-1.3-.7-3.4-1.1-4.8-1-1.5 .2-5.3-1.4-9.5-4-5.6-3.4-7.5-5.4-9.7-9.3-1.4-2.8-2.7-6.3-2.9-8-.1-1.6 .4-4.3 1.2-5.8 .8-1.5 1.7-2.7 2.2-2.7 .4 0 1.9 .6 3.5 1.4 1.5 .8 5 1.7 7.7 2.1 3.8 .5 5.6 .2 7.3-.9 1.2-.9 2.7-3.3 3.3-5.3 1-3.3 .7-4.9-1.8-12.2-2.5-7.5-3.4-8.9-8.3-13.1-3-2.6-7.2-7.5-9.2-10.8-2.1-3.4-3.9-7-4.1-7.9-.2-1-1-3.4-1.9-5.3-.8-1.9-2.5-6.9-3.7-11-1.3-4.1-2.4-8.4-2.6-9.5-.1-1.1-1-6.9-1.9-13-.9-6-1.7-18.5-1.9-27.8-.1-9.2 .1-16.6 .5-16.5 .3 .2 2.3 1.7 4.3 3.3 2.1 1.7 5.8 5 8.4 7.5 2.6 2.5 6.5 5.3 8.6 6.4 2.2 1 5.1 2.1 6.5 2.5 1.4 .3 5.3 .4 8.8 .3l6.2-.2 5.4-4.7c4.6-4 5.5-5.4 5.6-8.3 0-2.2-.8-4.6-2.2-6.5-1.3-1.6-2.4-3.7-2.5-4.5-.2-.8-.4-1.5-.5-1.6-.2 0-1.6-1-3.3-2.2-2.3-1.7-4.3-2.3-8.5-2.2-3 0-7.3 .7-9.5 1.6-2.6 1-5.4 1.4-7.7 1-2.4-.4-5.2-1.9-7.5-4.1-2.1-1.9-4.7-3.4-5.8-3.5-1.1 0-3.2-.5-4.7-1.2-1.6-.8-3.2-2.6-3.8-4.3-.6-1.6-1.2-14.5-1.5-28.5-.2-14-.9-27.1-1.4-29-.5-1.9-.6-3.9-.3-4.3 .4-.4 .1-4.5-.7-9-.7-4.5-2.4-11.3-3.7-15.2-1.3-3.8-4-10.4-6-14.5-2-4.1-3.9-7.7-4.3-8-.3-.3-1.2-1.6-1.9-3-.7-1.4-2.9-4.2-5-6.2-2-2-5.2-5.1-6.9-6.7-1.8-1.7-5-3.5-7-4-2.1-.4-4.9-.4-6.3 .1-1.4 .4-2.6 .7-2.8 .6-.1-.2 .3-2.4 1-5 1.1-3.9 1.1-5 0-6-.7-.7-1.9-1.4-2.5-1.4ZM206.7 40.3c1 1 2.8 3.5 4 5.5 1.3 2 3.7 6.6 5.4 10.2 1.7 3.6 3.5 7.9 4 9.5 .4 1.7 1.3 4.8 1.9 7 .6 2.2 1.6 6.3 2.1 9 .6 2.8 1.2 7.5 1.4 10.5 .3 3 .7 9.6 1 14.5 .3 5 .5 15.3 .5 23 0 7.7-.4 15.5-.8 17.4-.4 1.8-1 3.5-1.4 3.7-.5 .2-8.6 .4-18 .4-9.5 0-17.5-.3-17.8-.5-.3-.3 .8-1.8 2.3-3.3 1.6-1.5 3.2-4.6 3.8-7.2 .6-2.5 1.3-7.9 1.6-12 .5-6.3 .2-8.2-1.6-11.7-1.1-2.4-3.1-5.1-4.4-6-1.3-1-4.5-1.9-7.3-2.1-2.7-.2-5.2-.6-5.6-1-.4-.4 .4-3.8 1.8-7.7 1.4-3.8 3.2-7.9 4-9 .8-1.1 1.4-2.8 1.4-3.7 0-1 .5-1.8 1-1.8 .6 0 .8-.3 .6-.7-.3-.5 .5-2.6 1.8-4.8 1.2-2.2 2.6-5.3 3-7 .4-1.6 2.3-6.4 4.3-10.5 2-4.1 3.6-8.1 3.7-8.7 0-.7 .3-1.3 .6-1.3 .3 0 .6-.6 .7-1.2 .2-.7 .5-2.8 .8-4.5 .3-1.8 1-3.3 1.5-3.3 .6 0 1.2-1 1.5-2.2l0.4-2.3 1.8 1.8ZM208.3 81.1c-1.6 .1-3.6 .3-4.5 .5-1 .2-2.9 2.7-4.3 5.4-1.4 2.8-2.5 5.8-2.5 6.8 0 .9 .7 2.7 1.5 4 .9 1.3 2.5 2.2 4 2.2 1.9 0 2.6-.6 3-2.5 .3-1.7 1.7-3 4-4 3-1.3 3.5-2 3.5-5 0-1.9-.4-4.4-1-5.5-.7-1.3-1.9-2-3.7-1.9ZM218.5 93c-1.4 0-3.6 1.2-5 2.8-1.4 1.5-2.5 3.6-2.5 4.7 0 1.1 .4 2.5 .8 3.2 .4 .6 1.8 1.6 3.2 2.1 1.7 .7 3.4 .6 5.5-.2 1.7-.7 3.3-2 3.8-2.9 .4-.9 .7-2.5 .7-3.4-.1-1-1-2.8-2-4-1.1-1.3-3.1-2.3-4.5-2.3ZM170 94c0.6 0 1 .7 1 1.5 0 .8-.4 1.7-1 2-.5 .3-1.3 .3-1.7 0l-.8-.5 .8-1.5c0.4-.8 1.2-1.5 1.7-1.5ZM182 122c0.6 0 1.3 1.5 1.6 3.3 .4 1.7 .4 4.3 0 5.7-.3 1.4-2.6 4.2-5.1 6.3-2.5 2-5.7 3.8-7.2 4-2.5 .2-2.8-.1-2.8-2.8 0-2 .5-3 1.5-3 1 0 1.6-1.2 1.8-3.7 .1-2.3 .7-3.8 1.5-3.8 .6 .1 2.7-1.3 4.5-3 1.7-1.6 3.7-3 4.2-3ZM526.3 152.1c-1 .1-5.4 .9-9.8 1.8-4.4 1-9.9 2.9-12.2 4.4-2.4 1.5-4.5 3.2-4.8 3.7-.3 .6-.9 .8-1.5 .5-.5-.3-.9-.1-.7 .4 .1 .4-2 2.7-4.8 5-2.7 2.2-5.6 4.1-6.2 4.1-.7 0-1.3-.9-1.3-2 0-1.1-1.5-3.6-3.2-5.6-1.8-2-4-4.4-4.8-5.2-.8-.9-3.5-2.4-6-3.5-2.5-1.1-6.6-2.2-9.2-2.4-2.8-.2-4.8 .1-4.8 .7 0 .6-.7 1-1.5 1-.8 0-1.7 .8-2 1.8-.3 .9-1.1 2.6-1.8 3.7-.6 1.1-2.4 3.6-3.9 5.5-1.4 1.9-2.7 4.2-2.8 5-.1 .8-.2 3.6-.1 6.3 .1 3.8 .7 5.3 3.4 8.2 1.9 2.2 5.1 4.2 8.2 5.2 3.8 1.2 7 1.4 13.3 .9l8.2-.6-.6 6.3c-.3 3.4-.8 6.5-1 7-.2 .4-.6 7.6-.9 16-.3 8.3-1.2 18.7-2 23-.8 4.2-1.5 10-1.5 12.7 0 2.8-.4 5.2-1 5.5-.5 .3-1 4-.9 8.3 0 4.2-.4 10.6-1 14.2-.6 3.6-1.3 10.6-1.5 15.5-.3 5-.7 9.9-.9 11-.2 1.1 .1 3 .7 4.3 .9 1.9 1.9 2.2 5.6 2.2 4-.1 4.8-.5 6.8-3.5 1.8-3 2.1-4.4 1.7-9.5-.3-3.3-.2-6.2 .3-6.4 .4-.2 .6-6.9 .5-14.8 0-7.8 .3-15.6 .8-17.3 .4-1.6 1.1-4.6 1.4-6.5 .3-1.9 1-6.6 1.5-10.5 .6-3.8 1.5-9 2-11.5 .6-2.5 1.2-6.3 1.5-8.5 .4-2.2 1.4-12.7 2.3-23.3 1.4-16.3 2-19.5 3.5-20.3 .9-.5 5.2-.9 9.5-1 4.2 0 10.6 .4 14.2 1 3.6 .5 8.5 1.5 11 2.1 2.5 .7 6.1 2.1 8 3.3 1.9 1.1 5.8 3.8 8.5 5.9 2.8 2 7.8 4.6 11.3 5.8 3.4 1.1 7.2 1.8 8.5 1.6 1.2-.2 4-.9 6.2-1.4 2.2-.6 5.4-2.3 7-3.9 1.7-1.5 3.8-3.9 4.7-5.3 .8-1.4 1.7-3.8 1.8-5.5 .1-1.6 .1-3.2 0-3.5-.1-.3-.4-1.6-.6-3-.3-1.4-.9-2.6-1.4-2.7-.6-.2-1-1.3-1-2.5 .1-1.5-1.6-3.8-4.7-6.6-2.6-2.3-6.8-5.2-9.3-6.5-2.5-1.2-4.7-2.5-5-2.8-.3-.3-4.1-1.7-8.5-3.1-4.4-1.5-12.4-3.1-17.7-3.7-5.4-.6-10.6-1.1-11.5-1ZM165.8 153c1.2 0 2.2 .5 2.2 1 0 .6-.4 1.2-1 1.5-.5 .3-1.6-.2-2.2-1-1.1-1.4-1-1.6 1-1.5ZM398.3 181.3l-4.3-.3-2 3.3c-1.1 1.7-2 4.1-2 5.2 0 1.1 .6 2.9 1.5 4 .8 1.1 1.5 2.6 1.5 3.3 0 .6 .8 2.8 1.8 4.7 1.1 2.5 2.9 4.1 5.5 5 2 .8 4.2 1.5 4.7 1.5 .6 0 3.3-2.1 6-4.7 3.5-3.3 5.1-5.6 5.1-7.3-.1-1.4-.5-4-1.1-5.7-.8-2.7-2.1-3.8-6.7-6-3.2-1.5-7.7-2.8-10-3ZM175 204c-1.1 0-2.2 .5-2.5 1-.3 .6 .1 1.7 .8 2.5 .6 .9 1.5 1.6 2 1.5 .4 0 .5-.4 .2-1-.3-.5 0-1 .5-1 .6 0 1-.7 1-1.5 0-.8-.9-1.5-2-1.5ZM323.8 219.1c0.6-.1 1.2 .4 1.2 .9 0 .6-.4 .9-.8 .8-.4-.2-2.4 .8-4.3 2.1-1.9 1.3-5.1 4.4-7.1 7-2.3 2.7-4.7 7.5-6 11.6l-2.3 7-.3-4c-.2-2.2 .2-5.1 .9-6.5 .6-1.4 1.9-4.1 2.8-6 .9-1.9 2.9-4.6 4.5-6 1.6-1.4 4.5-3.5 6.5-4.7 2-1.1 4.2-2.2 4.9-2.2ZM388 237.3c-2.2-.3-3.9 0-4.6 .9-.8 .9-.9 3.7-.3 8.8 .4 4.1 1 9.1 1.4 11 .4 1.9 .8 3.7 1 4 .2 .3 .7 6.6 1.1 14 .5 7.4 .9 15.3 .9 17.6 0 2.2-.7 5.3-1.5 6.8-1.1 2-1.3 3.3-.5 5.4 .7 1.8 2.3 3.1 4.8 4 2 .6 4.4 .9 5.3 .5 .9-.5 2.3-2.1 3-3.8 1-2.1 1.3-5.2 1-10.5-.3-4.1-.7-8.8-1-10.5-.3-1.6-1.1-9.3-1.9-17-.8-7.7-1.2-16.2-.9-19 .2-2.7 .2-6.2-.2-7.7-.3-1.6-1.4-3.1-2.3-3.4-1-.4-3.4-.8-5.3-1.1Z" style="fill:rgb(0,0,255);"/>
<path d="M196.5 14c-.5 .1-2.9 2.2-5.3 4.8-2.4 2.6-5.7 6.6-7.3 9-1.6 2.3-2.9 4.7-2.9 5.2 0 .6-1.1 3.1-2.5 5.8-1.4 2.6-3.6 7.6-4.9 11.2-1.3 3.6-3.3 9.9-4.5 14-1.2 4.1-2.8 9-3.6 10.8-.8 1.7-1.5 4.6-1.5 6.2 0 1.7-.7 4.5-1.5 6.3-.8 1.7-2.1 10.4-3.1 19.2-.9 8.8-1.5 16.9-1.4 18 .1 1.1 .1 5.6 0 10-.1 5.1 .5 9.5 1.4 12.3l1.6 4.2-1.7 .7c-1 .4-2.8 2-4 3.5-1.3 1.5-3 2.8-3.8 2.8-.8 0-2.2 1-3 2.3-.8 1.2-1.2 3.3-.9 4.7 .2 1.4 .1 3-.3 3.5-.5 .6-1.9 1.8-3.3 2.7-1.4 1-4.5 3.2-7 4.9-2.5 1.8-7.6 4.7-11.5 6.5-3.8 1.8-7.7 3.7-8.5 4.2-.8 .5-3.7 2-6.5 3.4-2.7 1.4-7.2 3.1-10 3.7-3.5 .8-5.3 .8-6 .1l-1-1 1 0c0.6 .1 1.7-1.4 2.5-3.2 .8-1.8 3.9-5.9 7-9.1 3-3.2 6.8-8.1 8.4-11 1.6-2.9 3.8-7 5-9.2 1.2-2.5 2.1-6.7 2.4-11 .3-4.5-.2-9.5-1.3-14-.9-3.8-2.3-8-3.1-9.2-.8-1.3-2.7-2.5-4.4-2.8-1.6-.3-3-1.1-3-1.7 0-.7 .3-1.7 .7-2.1 .4-.5 .9-1.6 1-2.5 .1-1 .5-3.9 .9-6.7l0.7-5-2.4-1.8c-1.3-.9-3.7-1.7-5.4-1.7-2-.1-4.1 1-6.5 3.2-1.9 1.9-4.4 5.5-5.5 8.1-1.1 2.6-2.3 4.7-2.7 4.7-.5 0-2.3-1-4-2.2-2.5-1.8-4.8-2.3-9.3-2.3-4.5-.1-7.5 .6-12 2.7-3.3 1.5-7.6 4-9.5 5.6-2.3 1.9-4.3 4.9-5.7 8.8-1.3 3.2-2.3 6.8-2.3 7.9 0 1.1-.8 2.8-1.8 3.8l-1.7 1.8 1.2 7.7c0.9 5.6 1.9 8.3 3.5 10 1.3 1.2 3 2.2 3.8 2.2 1.2 0 1.5 1.5 1.5 7.3 0 3.9 .6 9 1.2 11.2 .8 2.7 3.3 6.1 7.5 10.2 3.5 3.5 9 7.7 12.3 9.4 4.5 2.4 7.7 3.3 13 3.7 4.7 .3 9.4-.1 14.5-1.3 4.1-1 9.1-2.4 11-3.2 1.9-.8 5-2.2 6.8-3.1 1.8-.9 3.2-2 3.2-2.4 0-.5 1.5-1.1 3.3-1.4 1.7-.4 5.9-2.4 9.2-4.5 3.3-2.1 6.6-3.9 7.3-3.9 .8 0 1.1 1.2 .8 3.8-.2 2-.6 4.2-.9 4.7-.3 .6-1.2 3.5-2 6.5-.8 3-1.5 8-1.5 11-.1 3-.5 7.5-1.1 10-.5 2.5-1.3 11.9-1.6 21-.5 13.1-1.1 17.4-2.6 20.8-1 2.3-1.9 5.2-1.9 6.5 0 1.2-.6 3.1-1.3 4.2-.8 1.1-1.7 3.6-2.1 5.5-.4 1.9-2.4 7.1-4.5 11.5-2.1 4.4-5.5 11.4-7.4 15.5-2.1 4.6-5.2 9.2-8.1 12-2.9 2.9-4.6 5.4-4.6 7-.1 1.4 .5 3 1.2 3.6 .7 .6 2 1.3 2.8 1.7 .8 .3 3.5-.4 6-1.5 2.5-1.1 5.3-3 6.2-4.2 1-1.1 1.7-1.8 1.8-1.3 0 .4 1.5 0 3.3-1 1.7-.9 4.9-3 7-4.7 2.1-1.7 4.9-4.7 6.2-6.6 1.4-1.9 3.9-7.5 5.5-12.5 1.7-4.9 4-12.1 5.1-16 1-3.8 1.9-7.9 1.9-9 0-1.1 .7-4 1.6-6.5 .8-2.5 2.2-7 3-10 .9-3 1.9-5.9 2.4-6.5 .4-.5 1-2.8 1.3-5 .3-2.2 1.7-9.8 3.1-17 1.3-7.1 2.7-14.8 3-17 .2-2.2 .9-6.9 1.5-10.5 .6-3.6 1.6-8.7 2.2-11.5 .5-2.7 1.9-8.5 3-12.7 1-4.3 1.8-8.1 1.8-8.5l-.1-.8 .1-1.7c0.1-1.1 1.4-2.2 3.4-2.7 1.7-.5 7-1.3 11.7-1.6 4.7-.4 10.8-.9 13.5-1.2 2.8-.3 8.8-.5 13.5-.4 4.7 0 9 .5 9.5 1.1 .6 .6 .9 2.8 .9 4.8-.1 2-.6 6.4-1.2 9.7-.6 3.3-1.2 13.2-1.3 22-.1 8.8 .1 21.2 .5 27.5 .4 6.3 .9 12.9 1.1 14.5 .2 1.7 1.3 5 2.4 7.5 1.2 3 1.7 5.9 1.4 8.5-.4 3.2 .1 4.7 2.1 7.5 1.5 1.9 2.6 4 2.6 4.5 0 .6 1.1 2.1 2.6 3.5 1.4 1.4 3.7 4.8 5.1 7.5 1.4 2.8 3.6 6.2 4.9 7.8l2.4 2.7-2.1 2.8-2 2.7 1.6 4c0.9 2.2 1.4 5.1 1.1 6.5-.3 1.4-1.1 5.7-1.9 9.5-.9 4.2-1.1 7.6-.6 8.5 .5 .8 .9 2.3 .9 3.3 0 .9 2.4 4.7 5.3 8.4 4.2 5.4 6.4 7.2 11.2 9.4 3.3 1.5 8.9 3.1 12.5 3.7 3.6 .6 10.1 .9 14.5 .7 4.5-.1 11.3-1.2 15.5-2.5 4.1-1.2 8.2-2.8 9-3.5 .8-.7 3.9-2.4 6.8-3.9 2.8-1.4 6.2-3.6 7.5-4.9 1.2-1.2 3.8-3.4 5.7-4.8 1.9-1.5 5.4-5.9 7.8-9.8 2.6-4.5 4.9-10.1 6.2-15.3 1.1-4.6 2.4-8.7 2.9-9.3 .5-.5 1.2-2.6 1.6-4.5 .3-1.9 1.5-6.2 2.6-9.5 1.1-3.3 2.4-7.3 2.9-9 .5-1.6 1-5.9 1-9.5 0-3.6-.6-8.7-1.4-11.5-.7-2.7-2.1-6.6-3.1-8.5-1.6-3.1-1.6-4.3-.6-9.7 .8-4.4 2.2-7.8 4.6-11 1.9-2.7 3.4-5.2 3.4-5.8 0-.5 .8-1.7 1.7-2.5 1-.8 3.3-4.9 5.2-9 2.8-6.3 3.4-8.7 3.5-15 .1-5.8-.4-8.3-1.9-10.9-1-1.9-3-4.2-4.4-5.3-1.4-1-4.3-2.3-6.5-2.7-2.2-.5-5.5-.5-7.5 0-1.9 .4-4.6 1.7-6 2.7-1.4 1.1-4 5-5.9 8.8-2.9 6-3.3 8-3.5 15.4-.1 4.7-.5 9-.8 9.5-.4 .6-3.5 .8-7.5 .6-5.8-.4-7.6 0-12.3 2.2-3.7 1.7-7.3 4.6-11.1 8.9-3 3.5-6.3 7.4-7.2 8.8-.9 1.4-2.1 4.8-2.6 7.5-.6 2.8-1.1 10.2-1.1 16.5-.1 6.3 .1 13.8 .5 16.5 .4 2.8 2.1 7.7 3.8 11 2.5 4.5 4.6 7 9.2 10.2 3.3 2.3 7.6 4.5 9.5 4.8 2.3 .4 5 0 8-1.2 2.9-1.2 6-3.7 9.2-7.5 2.6-3.2 4.8-6.2 4.8-6.8 0-.5 1.4-3 3-5.5 1.7-2.5 3-4.9 3-5.5 0-.5 .5-.8 1-.5 .6 .3 .8 2.8 .5 6.3-.4 3.1-1.3 8.4-2.1 11.7-.8 3.3-2.4 8.5-3.6 11.5-1.1 3-2.6 6.4-3.4 7.5-.8 1.1-6.1 6.9-11.7 12.8-6.7 7.1-11.7 11.5-14.7 12.9-2.5 1.2-5.3 2.8-6.4 3.7-1.4 1.3-4.1 1.6-13 1.5l-11.1 0-5.5-3c-3-1.6-6.9-4-8.6-5.4-1.8-1.4-3.8-3.8-4.7-5.5-.8-1.6-2-4.9-2.6-7.2-1-3.7-.8-4.8 .9-7.8 1.1-1.9 2.3-3.5 2.8-3.5 .4 0 2.3 .6 4.2 1.4 1.9 .8 5.5 1.7 8 2.1 3.9 .6 4.8 .4 6.6-1.7 1.2-1.3 2.4-3.3 2.8-4.5 .3-1.3-.3-5-1.4-8.3-1.1-3.3-2-6.7-2-7.5 0-.8-1.5-3-3.3-4.7-1.9-1.8-4.4-4-5.6-4.8-1.2-.8-4-4.3-6.2-7.7-2.1-3.5-5.4-10.5-7.3-15.5-1.8-5.1-4.1-12.4-5.1-16.3-.9-3.8-2.1-9.5-2.6-12.5-.5-3-1.2-10.4-1.5-16.5-.3-6-.7-12.8-.8-15-.1-2.2 .1-5.3 .4-7 .4-1.6 .3-4.5-.2-6.2-.4-1.8-.5-4 0-4.8 .6-1.3 1.4-1 4.7 1.7 2.2 1.8 6.5 5.6 9.5 8.4 3 2.8 7.5 6.2 10 7.5 3.5 1.8 6.2 2.3 12.1 2.3l7.7 .1 5-5c3.9-3.7 5.2-5.8 5.2-8 0-1.8-.8-3.8-2-5-1.1-1.1-2.1-2.6-2-3.2 0-.7-1.3-2.6-3-4.3-2.6-2.6-3.7-3-8.7-3-3.3 0-7.1 .6-8.8 1.5-1.6 .8-4.5 1.5-6.2 1.5-1.8 0-4.9-.8-7-1.7-2-1-4.5-2.8-5.5-4-1-1.3-2.7-2.3-3.8-2.3-1.1 0-3.3-.7-5-1.5-1.6-.8-3.5-2.7-4.1-4.2-.7-1.7-1.3-12.1-1.5-25.3-.2-12.4-.6-25.4-.9-29-.3-3.6-.7-8.1-.9-10-.3-1.9-.7-6-1.1-9-.3-3-1.5-8.2-2.5-11.5-1-3.3-3.5-9.6-5.6-14-2.1-4.4-6-11.3-8.8-15.3-2.8-4-5.4-7.3-5.8-7.2-.5 0-2.5-1.5-4.5-3.2l-3.6-3.3-6.4 0-6.5 0 .6-2.5c0.2-1.4 .8-3.8 1.1-5.5 .5-2.1 .3-3.2-.6-3.7-.8-.4-1.8-.8-2.4-.8ZM208.3 40.7c1.5 1.5 3 3.7 3.4 4.8 .3 1.1 1.3 2.7 2.2 3.6 .9 .9 2.8 4.8 4.3 8.5 1.5 3.8 3.4 9.4 4.3 12.4 .9 3 2.5 10.7 3.5 17 1 6.3 1.9 16.2 1.9 22 .1 5.8 .2 11.2 .3 12 .1 .8 .1 7.1 0 14-.1 10.4-.4 12.9-1.9 14.7l-1.8 2.3-12.5 .1c-6.9 .1-15.1 .1-18.2 0-4.4-.1-5.8-.5-5.8-1.6 0-.8 1.2-2.9 2.8-4.6 1.8-2.1 3.1-5.1 3.9-9.2 .6-3.4 1.2-8.6 1.2-11.4 .1-2.9-.5-6.5-1.3-8-.7-1.6-2.7-4-4.5-5.5-2.5-2.3-4.1-2.8-8.1-2.8-3 0-5.2-.5-5.6-1.2-.4-.7 .6-4.7 2.1-8.8 1.6-4.1 3.4-8.4 4.1-9.5 .7-1.1 3.3-6.9 5.7-13 2.4-6 6-14.4 8-18.5 1.9-4.1 3.9-9.3 4.3-11.5 .5-2.2 1.7-5 2.9-6.3l2-2.3 2.8 2.8ZM208 81.1c-.3 .1-1.5 .6-2.7 1.2-1.2 .7-3.4 3.3-4.8 6-1.4 2.6-2.5 5.3-2.5 6-.1 .6 .7 2 1.7 2.9 1 1 2.4 1.8 3.1 1.8 .6 0 1.7-1.3 2.2-3 .7-2 1.7-3 3-3 1.1 0 2.5-.9 3-2 .6-1.1 .7-3.5 .3-5.2-.3-1.8-1.1-3.6-1.7-4-.6-.4-1.3-.7-1.6-.7ZM170.7 85.3l0.8 .7-.8 .8c-.4 .4-.8 0-.8-.8 0-.8 .4-1.2 .8-.7ZM169.5 93c0.8 0 1.8 .6 2.1 1.3 .3 .6 .1 2.2-.5 3.5-.6 1.2-1.5 2.2-2.1 2.2-.5 0-1-1.6-1-3.5 0-2.4 .5-3.5 1.5-3.5ZM219.2 93.8c-1.7-.6-2.8-.2-4.7 2-1.4 1.5-2.6 3.4-2.6 4.2 .1 .8 .6 2.3 1.3 3.2 .7 .9 2 1.8 2.8 1.9 .8 .1 2.7-.1 4.3-.4 1.9-.5 2.9-1.5 3.3-3.4 .3-1.7 0-3.6-.9-4.8-.7-1.1-2.3-2.3-3.5-2.7ZM182 121c0.6 0 1.5 1.1 2 2.5 .6 1.4 1 4 1 5.8 0 2.6-1 4.1-5 8-2.7 2.6-6.1 4.9-7.5 5.2-1.4 .3-3.2-.1-4-.7-.9-.7-1.6-2.3-1.5-3.5 0-1.3 .9-2.7 2-3.3 1.4-.7 1.9-1.8 1.8-3.6-.2-1.8 .4-3 1.7-3.8 1.1-.6 3.5-2.3 5.2-3.8 1.8-1.6 3.8-2.8 4.3-2.8ZM72.5 124.7c0.6 .3-.1 1.2-1.5 1.9-1.4 .7-2.7 1-3 .8-.3-.2 .4-1.1 1.5-1.8 1.1-.8 2.5-1.2 3-.9ZM77 123.9c0.8 0 1.2 .4 .8 .8l-.8 .8-.7-.8c-.5-.4-.1-.8 .7-.8ZM84 125.8c1.1 .4 2.3 1.3 2.5 2 .3 .6 .3 1.7 0 2.2-.3 .6-1.1 1-1.7 1-.9 .1-.9-.4 .2-1.5 1.3-1.5 1.3-1.7-.7-2.1-1.3-.2-2.3-.8-2.3-1.4 0-.6 .8-.7 2-.2ZM66 126c0.6 0 .8 .5 .5 1-.3 .6-.9 1-1.5 1-.5 0-.8-.4-.5-1 .3-.5 1-1 1.5-1ZM76.3 127c0.4 0 .7 .5 .7 1 0 .6-.8 1.2-1.7 1.5-1 .3-2 .3-2.3 0-.3-.4 .2-1 1-1.5 .8-.6 1.8-1 2.3-1ZM86.4 133.3c1.1 .1 2.1 .9 2.3 1.7 .3 1 .2 1.1-.4 .4-.4-.6-1.5-1.4-2.3-1.7-1.1-.5-.9-.6 .4-.4ZM76 134c0.6 0 .8 .5 .5 1-.3 .6-.9 1-1.5 1-.5 0-.8-.4-.5-1 .3-.5 1-1 1.5-1ZM97 136.9c0.8 0 1.2 .4 .8 .8l-.8 .8-.7-.8c-.5-.4-.1-.8 .7-.8ZM76.5 138c0.6 0 .3 .5-.5 1-.8 .5-1.9 1-2.5 1-.5 0-.3-.5 .5-1 .8-.5 2-1 2.5-1ZM58.9 140.3c1.2 1 1.2 1.2-.2 1.5-1 .1-1.5 .7-1.2 1.2 .3 .6-.2 .8-1 .5-.8-.3-1.5-.8-1.5-1.2 0-.5 .5-1.4 1.2-2l1.3-1.3 1.4 1.3ZM71.7 140.3l0.8 .7-.8 .8c-.4 .4-.8 0-.8-.8 0-.8 .4-1.2 .8-.7ZM83 142.9c0.8 0 1.2 .4 .8 .8l-.8 .8-.7-.8c-.5-.4-.1-.8 .7-.8ZM110 143c0.6 0 1 .8 1 1.8 0 .9-.3 2-.7 2.4-.4 .4-1.4 .5-2 .2-.7-.2-1.3-.8-1.3-1.4 0-.6 .7-.7 1.6-.2 1.2 .5 1.5 .3 1-1-.3-1-.1-1.8 .4-1.8ZM96.8 146c0.6 0 1.4 .5 1.7 1 .3 .6 .4 1.2 .3 1.5-.2 .3-1-.2-1.8-1-1.1-1.1-1.1-1.6-.2-1.5ZM62 147c0.6 0 1 .5 1 1 0 .6-.2 1-.5 1-.3 0-.7-.4-1-1-.3-.5 0-1 .5-1ZM83 146.9c0.8 0 1.2 .4 .8 .8l-.8 .8-.7-.8c-.5-.4-.1-.8 .7-.8ZM69.5 148c0.8 0 1.5 .2 1.5 .5 0 .3-.7 .7-1.5 1-.8 .3-1.5 .1-1.5-.5 0-.5 .7-1 1.5-1ZM94 149.9c0.8 0 1.2 .4 .8 .8l-.8 .8-.7-.8c-.5-.4-.1-.8 .7-.8ZM54.5 151c0.3 0 .5 .7 .5 1.5 0 .8-.4 1.3-1 1-.5-.3-.8-.9-.5-1.5 .3-.5 .7-1 1-1ZM88.3 151c0.4 0 .7 .5 .7 1 0 .6-.7 1.2-1.5 1.5-.8 .3-1.5 .2-1.5-.2 0-.5 .3-1.1 .7-1.6 .5-.4 1.1-.7 1.6-.7ZM164.7 151.8c1.8 .1 3.6 .9 4.1 1.8 .4 1 .1 1.9-.8 2.5-.8 .5-1.7 .9-2 .9-.3 0-1.4-1.2-2.6-2.7l-2.1-2.8 3.4 .3ZM103.7 153.3l0.8 .7-.8 .8c-.4 .4-.8 0-.8-.8 0-.8 .4-1.2 .8-.7ZM527 153.1c-.8 0-4.6 .7-8.5 1.5-3.8 .9-9 2.5-11.5 3.7-2.5 1.2-7.8 5-11.7 8.4-4 3.5-8.2 6.3-9.3 6.3-1.4 0-2.2-.9-2.7-2.7-.3-1.6-2.1-4.6-3.8-6.8-2-2.4-5.3-4.9-8.6-6.4-3-1.3-7.1-2.4-9.1-2.5-2.8-.1-4.4 .6-6.8 2.9-1.7 1.7-3 3.5-3 4 0 .6-1.3 2.8-3 5-2.5 3.3-3.1 4.9-3 9 0 3.2 .7 6.2 2 8.3 1.1 1.7 3.7 4 5.8 4.9 2.8 1.3 6.4 1.8 14.4 1.8l10.8 0 0 2c0 1.1-.4 4.7-1 8-.5 3.3-1.1 12.8-1.4 21-.3 8.3-1.2 18.8-2.1 23.5-.9 4.7-1.8 10.1-2.1 12-.2 1.9-.6 7.3-.8 12-.3 4.7-.8 10.3-1.1 12.5-.4 2.2-1.1 10.3-1.6 18-.5 7.7-.7 14.6-.4 15.3 .3 .6 2 1.2 3.8 1.2 2.2 0 4.1-.8 6-2.7l2.7-2.8-.5-6.2c-.3-3.5-.2-6.5 .3-6.7 .4-.2 .6-4.2 .5-8.8-.1-4.5 .3-13.7 .8-20.3 .6-6.6 1.4-13.6 1.9-15.5 .5-1.9 1.4-6.6 2-10.5 .6-3.8 1.3-8.1 1.5-9.5 .2-1.4 1.1-7.7 1.9-14 .8-6.3 1.8-16.6 2.3-22.8l0.8-11.2 3.5-1.1c1.9-.7 6.4-1.1 10-1 3.6 0 8.5 .3 11 .7 2.5 .3 7 1 10 1.6 3 .6 7.3 1.9 9.5 3.1 2.2 1.1 6.7 4 10 6.5 3.3 2.5 8.6 5.4 11.8 6.4 3.3 1.1 7 1.6 9 1.2 1.7-.3 5.6-1.6 8.5-3 4.1-1.9 5.6-3.3 7.2-6.6 1.1-2.4 2-5.4 2-6.8 0-1.4-.8-4.5-1.7-7-.9-2.5-3.5-6.4-5.7-8.8-2.3-2.3-7.2-5.8-11.1-7.8-3.8-2-9.2-4.3-12-5.1-2.7-.7-9.7-2-15.5-2.8-5.8-.8-11.2-1.4-12-1.4ZM95.5 155.1c1.1-.1 1.8 .1 1.5 .4-.3 .4-1.2 .4-2 .2-1-.4-.9-.6 .5-.6ZM58 157c1.1 0 2.2 .6 2.4 1.3 .3 .6 .2 1.6-.2 2-.4 .4-1 .7-1.4 .7l-.8 0 .8-1.6c0.5-1.2 .3-1.5-1-1-1 .3-1.8 .2-1.8-.4 0-.5 .9-1 2-1ZM89.5 157c0.4 .3 .4 1.2 .2 2-.4 1-.6 .9-.6-.5-.1-1.1 .1-1.8 .4-1.5ZM74.5 158c0.3 0 .5 .5 .5 1 0 .6-.4 1-1 1-.5 0-.8-.4-.5-1 .3-.5 .7-1 1-1ZM105 159.9c0.8 0 1.2 .4 .8 .8l-.8 .8-.7-.8c-.5-.4-.1-.8 .7-.8ZM54 161c0.6 0 1.2 .5 1.5 1 .3 .6-.2 1-1 1-.8 0-1.5-.4-1.5-1 0-.5 .5-1 1-1ZM79 164c0.5 .8 1 1.8 1 2.3 0 .4-.4 .5-1 .2-.5-.3-1-1.3-1-2.2 0-1.5 .2-1.6 1-.3ZM95.1 165c1.1 1.4 1.7 2.7 1.4 3-.3 .3-1.2-.4-2-1.5-.8-1.1-1.4-2.4-1.4-3 0-.5 .9 .1 2 1.5ZM70.5 164c0.3 0 .5 .5 .5 1 0 .6-.4 1-1 1-.5 0-.8-.4-.5-1 .3-.5 .7-1 1-1ZM532.8 164.1c2.4 0 2.5 .1 .7 .9-1.1 .5-2.3 .9-2.7 .9-.5 .1-.8-.3-.8-.9 0-.5 1.2-1 2.8-.9ZM537 164.1c0.8 0 2.4 .4 3.5 .9 1.3 .5 1.4 .9 .5 .9-.8 0-2.4-.4-3.5-.9-1.3-.5-1.4-.9-.5-.9ZM75.7 165.3l0.8 .7-.8 .8c-.4 .4-.8 0-.8-.8 0-.8 .4-1.2 .8-.7ZM91 164.9c0.8 0 1.2 .4 .8 .8l-.8 .8-.7-.8c-.5-.4-.1-.8 .7-.8ZM516.3 165.1c0.4-.1 .7 .6 .7 1.4 0 .8-.3 1.5-.7 1.5-.5 0-1.8 .2-3 .5-1.3 .3-2.3 .2-2.3-.2 0-.5 1-1.3 2.2-2 1.3-.6 2.6-1.2 3.1-1.2ZM58 166c0.7 .3 1.5 1.2 1.9 2 .3 1 0 1.3-.9 .9-.8-.3-1.7-1.2-1.9-2-.3-.9 0-1.2 .9-.9ZM463.8 166.1c1.2-.1 3.3 .6 4.7 1.4 1.4 .8 2.3 2 2 2.5-.3 .6-.9 .8-1.5 .5-.5-.3-1 0-1 .5 0 .6 .7 1.2 1.5 1.5 .8 .3 1.5 .1 1.5-.5 0-.5 .5-1 1-1 .6 0 1.4 1.5 2 3.3 .5 1.7 .8 3.4 .5 3.7-.3 .3-.5-.1-.5-.7 0-.7-.4-1.3-1-1.3-.5 0-.8 .7-.5 1.5 .3 .9-.2 1.5-1.2 1.6l-1.8 .1-.7-.1c-.5 0-1.4 .3-2 .8-.7 .5-2.4 .7-3.8 .5-1.4-.2-3.5-1.5-4.7-2.9-1.3-1.4-2.3-3.8-2.3-5.5 0-2.2 .4-2.9 1.5-2.5 .9 .3 1.5-.1 1.5-1 0-.8 .6-1.7 1.3-1.9 .6-.3 2.2-.5 3.5-.5ZM547 166.3c1.1 .1 2 .9 2 2 0 1.2-.5 1.5-1.5 1-.9-.5-1.8-1.4-2-2-.3-.8 .3-1.2 1.5-1ZM63.7 167.3l0.8 .7-.8 .8c-.4 .4-.8 0-.8-.8 0-.8 .4-1.2 .8-.7ZM67 167.5c0.6 .3 1 1.3 1 2.3 .1 1.4-.2 1.5-1.5 .5-.8-.7-1.3-1.7-1-2.3 .3-.5 1-.8 1.5-.5ZM543 167c0.6 0 1 .5 1 1 0 .6-.2 1-.5 1-.3 0-.7-.4-1-1-.3-.5 0-1 .5-1ZM525 167.9c0.8 0 1.2 .4 .8 .8l-.8 .8-.7-.8c-.5-.4-.1-.8 .7-.8ZM74.7 169.3l0.8 .7-.8 .8c-.4 .4-.8 0-.8-.8 0-.8 .4-1.2 .8-.7ZM95.8 169.5c0.1 .3 0 1-.3 1.5-.3 .6-1.1 1-1.7 1-.9 .1-.9-.4 .2-1.5 .8-.8 1.6-1.3 1.8-1ZM463.3 169c-.8 0-.5 .8 .7 2 1.1 1.1 2.2 2 2.5 2 .3 0-.1-.9-.7-2-.7-1.1-1.9-2-2.5-2ZM551.7 169.3l0.8 .7-.8 .8c-.4 .4-.8 0-.8-.8 0-.8 .4-1.2 .8-.7ZM98 171c0.6 0 1 .7 1 1.5 0 .8-.4 1.3-1 1-.5-.3-1-.9-1-1.5 0-.5 .5-1 1-1ZM513.5 171c0.3 0 .5 .5 .5 1 0 .6-.4 1-1 1-.5 0-.8-.4-.5-1 .3-.5 .7-1 1-1ZM518.5 171c0.3 0 .7 .7 1 1.5 .3 .8 .1 1.3-.5 1-.5-.3-1-.9-1-1.5 0-.5 .2-1 .5-1ZM522.1 172.7c0.8 .7 2.4 1 3.7 .8 1.2-.3 5.5 .6 9.5 2 3.9 1.4 7.7 3 8.2 3.6 .7 .6 .6 .9-.2 .9-.7 0-3.9-1-7-2.1-3.2-1.2-7.8-2.5-10.2-2.8-2.6-.4-4.6-1.2-4.9-2.1-.4-1.2-.2-1.3 .9-.3ZM87.3 173.5c0.4 .3 .7 1 .7 1.5 0 .6-.7 1-1.5 1-.8 0-1.5-.3-1.5-.7 0-.5 .3-1.1 .7-1.5 .5-.4 1.1-.5 1.6-.3ZM469.7 173.3c-.4-.5-.8-.1-.8 .7 0 .8 .4 1.2 .8 .8l0.8-.8-.8-.7ZM460.5 174.2c-1.6 0-1.7 .1-.2 .4 .9 .2 1.7 .9 1.7 1.4 0 .6 1.2 1 2.8 1l2.7-.1-2.5-1.4c-1.4-.8-3.4-1.4-4.5-1.3ZM542 174c0.6 0 1 .3 1 .8 0 .4-.6 .7-1.4 .7-.8 0-1.2-.3-1-.7 .2-.5 .9-.8 1.4-.8ZM564.5 174c0.6 0 2 .7 3.3 1.5 1.2 .8 2.2 2.2 2.2 3 0 .8 .7 1.7 1.5 2 1 .3 1.5 1.8 1.5 4.5 0 2.2-.4 4-1 4-.5 0-1.2-.9-1.5-2-.3-1.1 .1-2.2 .8-2.4 .8-.3 .3-1.1-1.3-2.4-1.4-1.1-3.2-1.7-4-1.5-.8 .3-1.9-.1-2.5-.8-.8-1-.5-1.1 1.3-.6 1.4 .4 2.4 .2 2.8-.5 .4-.8-.4-2.1-1.7-3-1.3-1-1.9-1.8-1.4-1.8ZM92.3 176c0.6 0-.4 1.3-2.3 3-1.9 1.7-4.5 3-5.7 3-2 0-2.1-.2-.8-1.5 .8-.8 2-1.5 2.5-1.5 .6 0 1-.4 1-1 0-.5 .7-.8 1.5-.5 .8 .3 1.7 .1 2-.5 .3-.5 1.1-1 1.8-1ZM68.5 177c0.6 .1 .1 .7-1 1.5-1.1 .8-2.2 1.2-2.5 .9-.3-.3 .2-.9 1-1.4 .8-.6 2-1 2.5-1ZM550 176.9c0.8 0 1.2 .4 .8 .8l-.8 .8-.7-.8c-.5-.4-.1-.8 .7-.8ZM561.7 177.3l0.8 .7-.8 .8c-.4 .4-.8 0-.8-.8 0-.8 .4-1.2 .8-.7ZM79 177.9c0.8 0 1.2 .4 .8 .8l-.8 .8-.7-.8c-.5-.4-.1-.8 .7-.8ZM82 178.9c0.8 0 1.2 .4 .8 .8l-.8 .8-.7-.8c-.5-.4-.1-.8 .7-.8ZM73 180.4c1.4 .4 3.3 .8 4.3 .9 .9 .1 1.7 .7 1.7 1.2 0 .6-1.2 .7-3.2 .2-1.8-.4-4.1-.7-5-.7-1.1 0-1.5-.4-1-1.1 .4-.7 1.7-.9 3.2-.5ZM545.5 180c0.6 0 2.5 1.2 4.3 2.5 1.7 1.4 3.7 2.3 4.2 2 .6-.3 1 .3 1 1.3l-.1 1.7 1.8-1.8c1-.9 2.1-1.5 2.6-1.2 .4 .3 0 1.2-.8 2-.8 .8-1.9 1.5-2.5 1.5-.5 0-2.7-1.1-4.7-2.4-2.1-1.2-4.5-3.1-5.3-4-.8-.9-1-1.7-.5-1.6ZM554 179.9c0.8 0 1.2 .4 .8 .8l-.8 .8-.7-.8c-.5-.4-.1-.8 .7-.8ZM399.8 182.4c-3.6-.5-4.6-.2-6.3 1.6-1.4 1.6-1.9 3.4-1.8 6.4 .1 2.2 .6 4.3 1.1 4.6 .5 .3 1.4 2.1 2 4 .6 1.9 1.7 4.1 2.4 4.8 .7 .6 3.3 1.5 5.8 1.8l4.5 .6 3.8-4.3 3.8-4.4-.6-4c-.3-2.2-1.4-4.7-2.3-5.6-.9-.8-3.2-2.3-4.9-3.2-1.8-.9-5.2-2-7.5-2.3ZM565.7 183.3l0.8 .7-.8 .8c-.4 .4-.8 0-.8-.8 0-.8 .4-1.2 .8-.7ZM356 184c1.1 0 2.4 .8 2.9 1.8 .5 .9 .5 2.4 .1 3.2-.5 .8-1.4 3.5-2 6-.7 2.5-2.7 6.8-4.4 9.5-1.7 2.8-3.8 6.2-4.6 7.8-.8 1.5-1.8 2.7-2.2 2.7-.5 0-1-1.5-1.2-3.2-.2-1.8-.3-5.3-.2-7.8 .2-2.5 .9-6.5 1.6-9 .7-2.6 2.6-5.8 4.6-7.7 1.9-1.8 4.3-3.3 5.4-3.3ZM567 186.5c0.6 .3 1 1.6 1 3 0 1.8-.5 2.5-2 2.5-1.1 0-2-.4-2-1 0-.5 .6-.7 1.2-.2 .9 .5 1 .2 .5-1-.4-1-.5-2.2-.2-2.8 .3-.5 1-.8 1.5-.5ZM562.5 188.1l0-.1 0 1.5c0 .8-.6 1.5-1.2 1.5-.7 0-1.5-.4-1.8-1-.3-.5 .3-1.2 1.3-1.4 .9-.2 1.7-.4 1.7-.5ZM151.3 194c0.4 0 .4 1.2 0 2.8-.3 1.5-.9 3.8-1.3 5.2-.3 1.4-1.1 2.3-1.6 2-.5-.3-.9-.7-.9-1 .1-.3 .7-2.4 1.5-4.8 .8-2.3 1.8-4.2 2.3-4.2ZM175 205c-.5 0-1.2 .5-1.5 1-.3 .6-.2 1.2 .3 1.5 .4 .2 1.1 .1 1.5-.3 .4-.4 .7-1 .7-1.4 0-.5-.4-.8-1-.8ZM147.8 213c0.1 1.4 0 2.7-.3 3l-.5 .5-.5-.5c-.2-.3-.1-1.6 .3-3l0.7-2.5 .3 2.5ZM325 218.8c1.4 .2 3.7 1.1 5.3 1.8 1.5 .8 3.4 2.4 4.2 3.7 .8 1.2 1.8 3.8 2.1 5.7 .4 2.4 0 4.3-1.1 6-1.5 2.1-1.6 3.7-.9 10 .4 4.1 .7 8.4 .5 9.5-.1 1.1-1.1 4.9-2.2 8.5-1.1 3.6-2.7 8-3.5 9.8-.9 2.1-2.3 3.4-4.1 3.8-1.6 .4-5 .4-7.8 0-2.7-.3-6.8-1.6-9-2.9-2.2-1.2-4.5-3.4-5.2-4.7-.7-1.4-1.3-5.2-1.4-8.5-.1-3.3 .2-9.6 .6-14 .6-5.9 1.6-9.6 3.9-14 1.7-3.3 4.4-7.1 6-8.5 1.6-1.4 4.5-3.5 6.5-4.6 2.2-1.3 4.6-2 6.1-1.6ZM390 238.8c-1.4-.3-3.3-.4-4.2-.2-1 .2-1.8 1.2-1.8 2.2 0 .9 .6 7.3 1.4 14.2 .8 6.9 1.7 16.3 2.1 21 .3 4.7 .8 11 1.1 14 .4 4 0 6.8-1.3 10.2l-1.8 4.7 2 2.1c1.2 1.3 3.2 2.1 5.3 2 2.2 0 3.6-.7 4.6-2.2 .7-1.3 1.4-5 1.4-8.3 .1-3.3-.3-7.6-.8-9.5-.5-1.9-1.6-10.7-2.3-19.5-.8-8.8-1.2-18.5-1-21.5 .3-3.6 0-6.1-.9-7.1-.7-.9-2.4-1.9-3.8-2.1Z" style="fill:rgb(0,0,0);"/>
</g>
</g>
</defs>
<use xlink:href="#rgb"/>
</svg>